<svg xmlns="http://www.w3.org/2000/svg" xmlns:xlink="http://www.w3.org/1999/xlink" width="600" height="400" viewBox="0 0 2400 1600">
<defs>
  <clipPath id="clip790">
    <rect x="0" y="0" width="2400" height="1600"></rect>
  </clipPath>
</defs>
<path clip-path="url(#clip790)" d="M0 1600 L2400 1600 L2400 0 L0 0  Z" fill="#ffffff" fill-rule="evenodd" fill-opacity="1"></path>
<defs>
  <clipPath id="clip791">
    <rect x="480" y="0" width="1681" height="1600"></rect>
  </clipPath>
</defs>
<path clip-path="url(#clip790)" d="M224.098 1486.45 L2352.76 1486.45 L2352.76 47.2441 L224.098 47.2441  Z" fill="#ffffff" fill-rule="evenodd" fill-opacity="1"></path>
<defs>
  <clipPath id="clip792">
    <rect x="224" y="47" width="2130" height="1440"></rect>
  </clipPath>
</defs>
<polyline clip-path="url(#clip792)" style="stroke:#000000; stroke-linecap:round; stroke-linejoin:round; stroke-width:2; stroke-opacity:0.1; fill:none" points="486.988,1486.45 486.988,47.2441 "></polyline>
<polyline clip-path="url(#clip792)" style="stroke:#000000; stroke-linecap:round; stroke-linejoin:round; stroke-width:2; stroke-opacity:0.1; fill:none" points="887.707,1486.45 887.707,47.2441 "></polyline>
<polyline clip-path="url(#clip792)" style="stroke:#000000; stroke-linecap:round; stroke-linejoin:round; stroke-width:2; stroke-opacity:0.1; fill:none" points="1288.43,1486.45 1288.43,47.2441 "></polyline>
<polyline clip-path="url(#clip792)" style="stroke:#000000; stroke-linecap:round; stroke-linejoin:round; stroke-width:2; stroke-opacity:0.1; fill:none" points="1689.15,1486.45 1689.15,47.2441 "></polyline>
<polyline clip-path="url(#clip792)" style="stroke:#000000; stroke-linecap:round; stroke-linejoin:round; stroke-width:2; stroke-opacity:0.1; fill:none" points="2089.87,1486.45 2089.87,47.2441 "></polyline>
<polyline clip-path="url(#clip790)" style="stroke:#000000; stroke-linecap:round; stroke-linejoin:round; stroke-width:4; stroke-opacity:1; fill:none" points="224.098,1486.45 2352.76,1486.45 "></polyline>
<polyline clip-path="url(#clip790)" style="stroke:#000000; stroke-linecap:round; stroke-linejoin:round; stroke-width:4; stroke-opacity:1; fill:none" points="486.988,1486.45 486.988,1467.55 "></polyline>
<polyline clip-path="url(#clip790)" style="stroke:#000000; stroke-linecap:round; stroke-linejoin:round; stroke-width:4; stroke-opacity:1; fill:none" points="887.707,1486.45 887.707,1467.55 "></polyline>
<polyline clip-path="url(#clip790)" style="stroke:#000000; stroke-linecap:round; stroke-linejoin:round; stroke-width:4; stroke-opacity:1; fill:none" points="1288.43,1486.45 1288.43,1467.55 "></polyline>
<polyline clip-path="url(#clip790)" style="stroke:#000000; stroke-linecap:round; stroke-linejoin:round; stroke-width:4; stroke-opacity:1; fill:none" points="1689.15,1486.45 1689.15,1467.55 "></polyline>
<polyline clip-path="url(#clip790)" style="stroke:#000000; stroke-linecap:round; stroke-linejoin:round; stroke-width:4; stroke-opacity:1; fill:none" points="2089.87,1486.45 2089.87,1467.55 "></polyline>
<path clip-path="url(#clip790)" d="M425.97 1532.02 L455.645 1532.02 L455.645 1535.95 L425.97 1535.95 L425.97 1532.02 Z" fill="#000000" fill-rule="nonzero" fill-opacity="1"></path><path clip-path="url(#clip790)" d="M465.784 1514.29 L484.141 1514.29 L484.141 1518.22 L470.067 1518.22 L470.067 1526.7 Q471.085 1526.35 472.104 1526.19 Q473.122 1526 474.141 1526 Q479.928 1526 483.307 1529.17 Q486.687 1532.34 486.687 1537.76 Q486.687 1543.34 483.215 1546.44 Q479.742 1549.52 473.423 1549.52 Q471.247 1549.52 468.979 1549.15 Q466.733 1548.78 464.326 1548.04 L464.326 1543.34 Q466.409 1544.47 468.631 1545.03 Q470.854 1545.58 473.33 1545.58 Q477.335 1545.58 479.673 1543.48 Q482.011 1541.37 482.011 1537.76 Q482.011 1534.15 479.673 1532.04 Q477.335 1529.94 473.33 1529.94 Q471.455 1529.94 469.58 1530.35 Q467.729 1530.77 465.784 1531.65 L465.784 1514.29 Z" fill="#000000" fill-rule="nonzero" fill-opacity="1"></path><path clip-path="url(#clip790)" d="M505.9 1517.37 Q502.289 1517.37 500.46 1520.93 Q498.654 1524.47 498.654 1531.6 Q498.654 1538.71 500.46 1542.27 Q502.289 1545.82 505.9 1545.82 Q509.534 1545.82 511.34 1542.27 Q513.168 1538.71 513.168 1531.6 Q513.168 1524.47 511.34 1520.93 Q509.534 1517.37 505.9 1517.37 M505.9 1513.66 Q511.71 1513.66 514.765 1518.27 Q517.844 1522.85 517.844 1531.6 Q517.844 1540.33 514.765 1544.94 Q511.71 1549.52 505.9 1549.52 Q500.09 1549.52 497.011 1544.94 Q493.955 1540.33 493.955 1531.6 Q493.955 1522.85 497.011 1518.27 Q500.09 1513.66 505.9 1513.66 Z" fill="#000000" fill-rule="nonzero" fill-opacity="1"></path><path clip-path="url(#clip790)" d="M536.062 1517.37 Q532.451 1517.37 530.622 1520.93 Q528.816 1524.47 528.816 1531.6 Q528.816 1538.71 530.622 1542.27 Q532.451 1545.82 536.062 1545.82 Q539.696 1545.82 541.501 1542.27 Q543.33 1538.71 543.33 1531.6 Q543.33 1524.47 541.501 1520.93 Q539.696 1517.37 536.062 1517.37 M536.062 1513.66 Q541.872 1513.66 544.927 1518.27 Q548.006 1522.85 548.006 1531.6 Q548.006 1540.33 544.927 1544.94 Q541.872 1549.52 536.062 1549.52 Q530.251 1549.52 527.173 1544.94 Q524.117 1540.33 524.117 1531.6 Q524.117 1522.85 527.173 1518.27 Q530.251 1513.66 536.062 1513.66 Z" fill="#000000" fill-rule="nonzero" fill-opacity="1"></path><path clip-path="url(#clip790)" d="M826.689 1532.02 L856.365 1532.02 L856.365 1535.95 L826.689 1535.95 L826.689 1532.02 Z" fill="#000000" fill-rule="nonzero" fill-opacity="1"></path><path clip-path="url(#clip790)" d="M870.485 1544.91 L886.805 1544.91 L886.805 1548.85 L864.86 1548.85 L864.86 1544.91 Q867.522 1542.16 872.106 1537.53 Q876.712 1532.88 877.893 1531.53 Q880.138 1529.01 881.018 1527.27 Q881.92 1525.51 881.92 1523.82 Q881.92 1521.07 879.976 1519.33 Q878.055 1517.6 874.953 1517.6 Q872.754 1517.6 870.3 1518.36 Q867.869 1519.13 865.092 1520.68 L865.092 1515.95 Q867.916 1514.82 870.369 1514.24 Q872.823 1513.66 874.86 1513.66 Q880.231 1513.66 883.425 1516.35 Q886.619 1519.03 886.619 1523.52 Q886.619 1525.65 885.809 1527.57 Q885.022 1529.47 882.916 1532.07 Q882.337 1532.74 879.235 1535.95 Q876.133 1539.15 870.485 1544.91 Z" fill="#000000" fill-rule="nonzero" fill-opacity="1"></path><path clip-path="url(#clip790)" d="M896.666 1514.29 L915.022 1514.29 L915.022 1518.22 L900.948 1518.22 L900.948 1526.7 Q901.967 1526.35 902.985 1526.19 Q904.004 1526 905.022 1526 Q910.809 1526 914.189 1529.17 Q917.568 1532.34 917.568 1537.76 Q917.568 1543.34 914.096 1546.44 Q910.624 1549.52 904.304 1549.52 Q902.129 1549.52 899.86 1549.15 Q897.615 1548.78 895.207 1548.04 L895.207 1543.34 Q897.291 1544.47 899.513 1545.03 Q901.735 1545.58 904.212 1545.58 Q908.216 1545.58 910.554 1543.48 Q912.892 1541.37 912.892 1537.76 Q912.892 1534.15 910.554 1532.04 Q908.216 1529.94 904.212 1529.94 Q902.337 1529.94 900.462 1530.35 Q898.61 1530.77 896.666 1531.65 L896.666 1514.29 Z" fill="#000000" fill-rule="nonzero" fill-opacity="1"></path><path clip-path="url(#clip790)" d="M936.781 1517.37 Q933.17 1517.37 931.341 1520.93 Q929.536 1524.47 929.536 1531.6 Q929.536 1538.71 931.341 1542.27 Q933.17 1545.82 936.781 1545.82 Q940.415 1545.82 942.221 1542.27 Q944.05 1538.71 944.05 1531.6 Q944.05 1524.47 942.221 1520.93 Q940.415 1517.37 936.781 1517.37 M936.781 1513.66 Q942.591 1513.66 945.647 1518.27 Q948.726 1522.85 948.726 1531.6 Q948.726 1540.33 945.647 1544.94 Q942.591 1549.52 936.781 1549.52 Q930.971 1549.52 927.892 1544.94 Q924.837 1540.33 924.837 1531.6 Q924.837 1522.85 927.892 1518.27 Q930.971 1513.66 936.781 1513.66 Z" fill="#000000" fill-rule="nonzero" fill-opacity="1"></path><path clip-path="url(#clip790)" d="M1288.43 1517.37 Q1284.82 1517.37 1282.99 1520.93 Q1281.18 1524.47 1281.18 1531.6 Q1281.18 1538.71 1282.99 1542.27 Q1284.82 1545.82 1288.43 1545.82 Q1292.06 1545.82 1293.87 1542.27 Q1295.7 1538.71 1295.7 1531.6 Q1295.7 1524.47 1293.87 1520.93 Q1292.06 1517.37 1288.43 1517.37 M1288.43 1513.66 Q1294.24 1513.66 1297.29 1518.27 Q1300.37 1522.85 1300.37 1531.6 Q1300.37 1540.33 1297.29 1544.94 Q1294.24 1549.52 1288.43 1549.52 Q1282.62 1549.52 1279.54 1544.94 Q1276.48 1540.33 1276.48 1531.6 Q1276.48 1522.85 1279.54 1518.27 Q1282.62 1513.66 1288.43 1513.66 Z" fill="#000000" fill-rule="nonzero" fill-opacity="1"></path><path clip-path="url(#clip790)" d="M1652.84 1544.91 L1669.16 1544.91 L1669.16 1548.85 L1647.21 1548.85 L1647.21 1544.91 Q1649.88 1542.16 1654.46 1537.53 Q1659.07 1532.88 1660.25 1531.53 Q1662.49 1529.01 1663.37 1527.27 Q1664.27 1525.51 1664.27 1523.82 Q1664.27 1521.07 1662.33 1519.33 Q1660.41 1517.6 1657.31 1517.6 Q1655.11 1517.6 1652.65 1518.36 Q1650.22 1519.13 1647.45 1520.68 L1647.45 1515.95 Q1650.27 1514.82 1652.72 1514.24 Q1655.18 1513.66 1657.21 1513.66 Q1662.58 1513.66 1665.78 1516.35 Q1668.97 1519.03 1668.97 1523.52 Q1668.97 1525.65 1668.16 1527.57 Q1667.38 1529.47 1665.27 1532.07 Q1664.69 1532.74 1661.59 1535.95 Q1658.49 1539.15 1652.84 1544.91 Z" fill="#000000" fill-rule="nonzero" fill-opacity="1"></path><path clip-path="url(#clip790)" d="M1679.02 1514.29 L1697.38 1514.29 L1697.38 1518.22 L1683.3 1518.22 L1683.3 1526.7 Q1684.32 1526.35 1685.34 1526.19 Q1686.36 1526 1687.38 1526 Q1693.16 1526 1696.54 1529.17 Q1699.92 1532.34 1699.92 1537.76 Q1699.92 1543.34 1696.45 1546.44 Q1692.98 1549.52 1686.66 1549.52 Q1684.48 1549.52 1682.21 1549.15 Q1679.97 1548.78 1677.56 1548.04 L1677.56 1543.34 Q1679.64 1544.47 1681.87 1545.03 Q1684.09 1545.58 1686.57 1545.58 Q1690.57 1545.58 1692.91 1543.48 Q1695.25 1541.37 1695.25 1537.76 Q1695.25 1534.15 1692.91 1532.04 Q1690.57 1529.94 1686.57 1529.94 Q1684.69 1529.94 1682.82 1530.35 Q1680.96 1530.77 1679.02 1531.65 L1679.02 1514.29 Z" fill="#000000" fill-rule="nonzero" fill-opacity="1"></path><path clip-path="url(#clip790)" d="M1719.13 1517.37 Q1715.52 1517.37 1713.69 1520.93 Q1711.89 1524.47 1711.89 1531.6 Q1711.89 1538.71 1713.69 1542.27 Q1715.52 1545.82 1719.13 1545.82 Q1722.77 1545.82 1724.57 1542.27 Q1726.4 1538.71 1726.4 1531.6 Q1726.4 1524.47 1724.57 1520.93 Q1722.77 1517.37 1719.13 1517.37 M1719.13 1513.66 Q1724.94 1513.66 1728 1518.27 Q1731.08 1522.85 1731.08 1531.6 Q1731.08 1540.33 1728 1544.94 Q1724.94 1549.52 1719.13 1549.52 Q1713.32 1549.52 1710.25 1544.94 Q1707.19 1540.33 1707.19 1531.6 Q1707.19 1522.85 1710.25 1518.27 Q1713.32 1513.66 1719.13 1513.66 Z" fill="#000000" fill-rule="nonzero" fill-opacity="1"></path><path clip-path="url(#clip790)" d="M2049.48 1514.29 L2067.84 1514.29 L2067.84 1518.22 L2053.77 1518.22 L2053.77 1526.7 Q2054.79 1526.35 2055.8 1526.19 Q2056.82 1526 2057.84 1526 Q2063.63 1526 2067.01 1529.17 Q2070.39 1532.34 2070.39 1537.76 Q2070.39 1543.34 2066.91 1546.44 Q2063.44 1549.52 2057.12 1549.52 Q2054.95 1549.52 2052.68 1549.15 Q2050.43 1548.78 2048.03 1548.04 L2048.03 1543.34 Q2050.11 1544.47 2052.33 1545.03 Q2054.55 1545.58 2057.03 1545.58 Q2061.04 1545.58 2063.37 1543.48 Q2065.71 1541.37 2065.71 1537.76 Q2065.71 1534.15 2063.37 1532.04 Q2061.04 1529.94 2057.03 1529.94 Q2055.16 1529.94 2053.28 1530.35 Q2051.43 1530.77 2049.48 1531.65 L2049.48 1514.29 Z" fill="#000000" fill-rule="nonzero" fill-opacity="1"></path><path clip-path="url(#clip790)" d="M2089.6 1517.37 Q2085.99 1517.37 2084.16 1520.93 Q2082.35 1524.47 2082.35 1531.6 Q2082.35 1538.71 2084.16 1542.27 Q2085.99 1545.82 2089.6 1545.82 Q2093.23 1545.82 2095.04 1542.27 Q2096.87 1538.71 2096.87 1531.6 Q2096.87 1524.47 2095.04 1520.93 Q2093.23 1517.37 2089.6 1517.37 M2089.6 1513.66 Q2095.41 1513.66 2098.47 1518.27 Q2101.54 1522.85 2101.54 1531.6 Q2101.54 1540.33 2098.47 1544.94 Q2095.41 1549.52 2089.6 1549.52 Q2083.79 1549.52 2080.71 1544.94 Q2077.66 1540.33 2077.66 1531.6 Q2077.66 1522.85 2080.71 1518.27 Q2083.79 1513.66 2089.6 1513.66 Z" fill="#000000" fill-rule="nonzero" fill-opacity="1"></path><path clip-path="url(#clip790)" d="M2119.76 1517.37 Q2116.15 1517.37 2114.32 1520.93 Q2112.52 1524.47 2112.52 1531.6 Q2112.52 1538.71 2114.32 1542.27 Q2116.15 1545.82 2119.76 1545.82 Q2123.4 1545.82 2125.2 1542.27 Q2127.03 1538.71 2127.03 1531.6 Q2127.03 1524.47 2125.2 1520.93 Q2123.4 1517.37 2119.76 1517.37 M2119.76 1513.66 Q2125.57 1513.66 2128.63 1518.27 Q2131.71 1522.85 2131.71 1531.6 Q2131.71 1540.33 2128.63 1544.94 Q2125.57 1549.52 2119.76 1549.52 Q2113.95 1549.52 2110.87 1544.94 Q2107.82 1540.33 2107.82 1531.6 Q2107.82 1522.85 2110.87 1518.27 Q2113.95 1513.66 2119.76 1513.66 Z" fill="#000000" fill-rule="nonzero" fill-opacity="1"></path><polyline clip-path="url(#clip792)" style="stroke:#000000; stroke-linecap:round; stroke-linejoin:round; stroke-width:2; stroke-opacity:0.1; fill:none" points="224.098,1302.92 2352.76,1302.92 "></polyline>
<polyline clip-path="url(#clip792)" style="stroke:#000000; stroke-linecap:round; stroke-linejoin:round; stroke-width:2; stroke-opacity:0.1; fill:none" points="224.098,1051.04 2352.76,1051.04 "></polyline>
<polyline clip-path="url(#clip792)" style="stroke:#000000; stroke-linecap:round; stroke-linejoin:round; stroke-width:2; stroke-opacity:0.1; fill:none" points="224.098,799.158 2352.76,799.158 "></polyline>
<polyline clip-path="url(#clip792)" style="stroke:#000000; stroke-linecap:round; stroke-linejoin:round; stroke-width:2; stroke-opacity:0.1; fill:none" points="224.098,547.276 2352.76,547.276 "></polyline>
<polyline clip-path="url(#clip792)" style="stroke:#000000; stroke-linecap:round; stroke-linejoin:round; stroke-width:2; stroke-opacity:0.1; fill:none" points="224.098,295.394 2352.76,295.394 "></polyline>
<polyline clip-path="url(#clip790)" style="stroke:#000000; stroke-linecap:round; stroke-linejoin:round; stroke-width:4; stroke-opacity:1; fill:none" points="224.098,1486.45 224.098,47.2441 "></polyline>
<polyline clip-path="url(#clip790)" style="stroke:#000000; stroke-linecap:round; stroke-linejoin:round; stroke-width:4; stroke-opacity:1; fill:none" points="224.098,1302.92 242.996,1302.92 "></polyline>
<polyline clip-path="url(#clip790)" style="stroke:#000000; stroke-linecap:round; stroke-linejoin:round; stroke-width:4; stroke-opacity:1; fill:none" points="224.098,1051.04 242.996,1051.04 "></polyline>
<polyline clip-path="url(#clip790)" style="stroke:#000000; stroke-linecap:round; stroke-linejoin:round; stroke-width:4; stroke-opacity:1; fill:none" points="224.098,799.158 242.996,799.158 "></polyline>
<polyline clip-path="url(#clip790)" style="stroke:#000000; stroke-linecap:round; stroke-linejoin:round; stroke-width:4; stroke-opacity:1; fill:none" points="224.098,547.276 242.996,547.276 "></polyline>
<polyline clip-path="url(#clip790)" style="stroke:#000000; stroke-linecap:round; stroke-linejoin:round; stroke-width:4; stroke-opacity:1; fill:none" points="224.098,295.394 242.996,295.394 "></polyline>
<path clip-path="url(#clip790)" d="M50.9921 1303.37 L80.6679 1303.37 L80.6679 1307.31 L50.9921 1307.31 L50.9921 1303.37 Z" fill="#000000" fill-rule="nonzero" fill-opacity="1"></path><path clip-path="url(#clip790)" d="M100.76 1288.72 Q97.1493 1288.72 95.3206 1292.29 Q93.515 1295.83 93.515 1302.96 Q93.515 1310.06 95.3206 1313.63 Q97.1493 1317.17 100.76 1317.17 Q104.395 1317.17 106.2 1313.63 Q108.029 1310.06 108.029 1302.96 Q108.029 1295.83 106.2 1292.29 Q104.395 1288.72 100.76 1288.72 M100.76 1285.02 Q106.571 1285.02 109.626 1289.62 Q112.705 1294.21 112.705 1302.96 Q112.705 1311.68 109.626 1316.29 Q106.571 1320.87 100.76 1320.87 Q94.9502 1320.87 91.8715 1316.29 Q88.816 1311.68 88.816 1302.96 Q88.816 1294.21 91.8715 1289.62 Q94.9502 1285.02 100.76 1285.02 Z" fill="#000000" fill-rule="nonzero" fill-opacity="1"></path><path clip-path="url(#clip790)" d="M120.922 1314.32 L125.807 1314.32 L125.807 1320.2 L120.922 1320.2 L120.922 1314.32 Z" fill="#000000" fill-rule="nonzero" fill-opacity="1"></path><path clip-path="url(#clip790)" d="M136.802 1316.27 L144.441 1316.27 L144.441 1289.9 L136.131 1291.57 L136.131 1287.31 L144.394 1285.64 L149.07 1285.64 L149.07 1316.27 L156.709 1316.27 L156.709 1320.2 L136.802 1320.2 L136.802 1316.27 Z" fill="#000000" fill-rule="nonzero" fill-opacity="1"></path><path clip-path="url(#clip790)" d="M176.153 1288.72 Q172.542 1288.72 170.714 1292.29 Q168.908 1295.83 168.908 1302.96 Q168.908 1310.06 170.714 1313.63 Q172.542 1317.17 176.153 1317.17 Q179.788 1317.17 181.593 1313.63 Q183.422 1310.06 183.422 1302.96 Q183.422 1295.83 181.593 1292.29 Q179.788 1288.72 176.153 1288.72 M176.153 1285.02 Q181.964 1285.02 185.019 1289.62 Q188.098 1294.21 188.098 1302.96 Q188.098 1311.68 185.019 1316.29 Q181.964 1320.87 176.153 1320.87 Q170.343 1320.87 167.265 1316.29 Q164.209 1311.68 164.209 1302.96 Q164.209 1294.21 167.265 1289.62 Q170.343 1285.02 176.153 1285.02 Z" fill="#000000" fill-rule="nonzero" fill-opacity="1"></path><path clip-path="url(#clip790)" d="M51.9875 1051.49 L81.6633 1051.49 L81.6633 1055.43 L51.9875 1055.43 L51.9875 1051.49 Z" fill="#000000" fill-rule="nonzero" fill-opacity="1"></path><path clip-path="url(#clip790)" d="M101.756 1036.84 Q98.1447 1036.84 96.316 1040.4 Q94.5104 1043.95 94.5104 1051.07 Q94.5104 1058.18 96.316 1061.75 Q98.1447 1065.29 101.756 1065.29 Q105.39 1065.29 107.196 1061.75 Q109.024 1058.18 109.024 1051.07 Q109.024 1043.95 107.196 1040.4 Q105.39 1036.84 101.756 1036.84 M101.756 1033.14 Q107.566 1033.14 110.621 1037.74 Q113.7 1042.32 113.7 1051.07 Q113.7 1059.8 110.621 1064.41 Q107.566 1068.99 101.756 1068.99 Q95.9456 1068.99 92.8669 1064.41 Q89.8114 1059.8 89.8114 1051.07 Q89.8114 1042.32 92.8669 1037.74 Q95.9456 1033.14 101.756 1033.14 Z" fill="#000000" fill-rule="nonzero" fill-opacity="1"></path><path clip-path="url(#clip790)" d="M121.918 1062.44 L126.802 1062.44 L126.802 1068.32 L121.918 1068.32 L121.918 1062.44 Z" fill="#000000" fill-rule="nonzero" fill-opacity="1"></path><path clip-path="url(#clip790)" d="M146.987 1036.84 Q143.376 1036.84 141.547 1040.4 Q139.742 1043.95 139.742 1051.07 Q139.742 1058.18 141.547 1061.75 Q143.376 1065.29 146.987 1065.29 Q150.621 1065.29 152.427 1061.75 Q154.255 1058.18 154.255 1051.07 Q154.255 1043.95 152.427 1040.4 Q150.621 1036.84 146.987 1036.84 M146.987 1033.14 Q152.797 1033.14 155.853 1037.74 Q158.931 1042.32 158.931 1051.07 Q158.931 1059.8 155.853 1064.41 Q152.797 1068.99 146.987 1068.99 Q141.177 1068.99 138.098 1064.41 Q135.043 1059.8 135.043 1051.07 Q135.043 1042.32 138.098 1037.74 Q141.177 1033.14 146.987 1033.14 Z" fill="#000000" fill-rule="nonzero" fill-opacity="1"></path><path clip-path="url(#clip790)" d="M167.195 1033.76 L185.552 1033.76 L185.552 1037.7 L171.478 1037.7 L171.478 1046.17 Q172.496 1045.82 173.515 1045.66 Q174.533 1045.47 175.552 1045.47 Q181.339 1045.47 184.718 1048.64 Q188.098 1051.82 188.098 1057.23 Q188.098 1062.81 184.626 1065.91 Q181.153 1068.99 174.834 1068.99 Q172.658 1068.99 170.39 1068.62 Q168.144 1068.25 165.737 1067.51 L165.737 1062.81 Q167.82 1063.95 170.042 1064.5 Q172.265 1065.06 174.741 1065.06 Q178.746 1065.06 181.084 1062.95 Q183.422 1060.84 183.422 1057.23 Q183.422 1053.62 181.084 1051.51 Q178.746 1049.41 174.741 1049.41 Q172.866 1049.41 170.991 1049.82 Q169.14 1050.24 167.195 1051.12 L167.195 1033.76 Z" fill="#000000" fill-rule="nonzero" fill-opacity="1"></path><path clip-path="url(#clip790)" d="M100.76 784.957 Q97.1493 784.957 95.3206 788.521 Q93.515 792.063 93.515 799.193 Q93.515 806.299 95.3206 809.864 Q97.1493 813.406 100.76 813.406 Q104.395 813.406 106.2 809.864 Q108.029 806.299 108.029 799.193 Q108.029 792.063 106.2 788.521 Q104.395 784.957 100.76 784.957 M100.76 781.253 Q106.571 781.253 109.626 785.859 Q112.705 790.443 112.705 799.193 Q112.705 807.919 109.626 812.526 Q106.571 817.109 100.76 817.109 Q94.9502 817.109 91.8715 812.526 Q88.816 807.919 88.816 799.193 Q88.816 790.443 91.8715 785.859 Q94.9502 781.253 100.76 781.253 Z" fill="#000000" fill-rule="nonzero" fill-opacity="1"></path><path clip-path="url(#clip790)" d="M120.922 810.558 L125.807 810.558 L125.807 816.438 L120.922 816.438 L120.922 810.558 Z" fill="#000000" fill-rule="nonzero" fill-opacity="1"></path><path clip-path="url(#clip790)" d="M145.992 784.957 Q142.381 784.957 140.552 788.521 Q138.746 792.063 138.746 799.193 Q138.746 806.299 140.552 809.864 Q142.381 813.406 145.992 813.406 Q149.626 813.406 151.431 809.864 Q153.26 806.299 153.26 799.193 Q153.26 792.063 151.431 788.521 Q149.626 784.957 145.992 784.957 M145.992 781.253 Q151.802 781.253 154.857 785.859 Q157.936 790.443 157.936 799.193 Q157.936 807.919 154.857 812.526 Q151.802 817.109 145.992 817.109 Q140.181 817.109 137.103 812.526 Q134.047 807.919 134.047 799.193 Q134.047 790.443 137.103 785.859 Q140.181 781.253 145.992 781.253 Z" fill="#000000" fill-rule="nonzero" fill-opacity="1"></path><path clip-path="url(#clip790)" d="M176.153 784.957 Q172.542 784.957 170.714 788.521 Q168.908 792.063 168.908 799.193 Q168.908 806.299 170.714 809.864 Q172.542 813.406 176.153 813.406 Q179.788 813.406 181.593 809.864 Q183.422 806.299 183.422 799.193 Q183.422 792.063 181.593 788.521 Q179.788 784.957 176.153 784.957 M176.153 781.253 Q181.964 781.253 185.019 785.859 Q188.098 790.443 188.098 799.193 Q188.098 807.919 185.019 812.526 Q181.964 817.109 176.153 817.109 Q170.343 817.109 167.265 812.526 Q164.209 807.919 164.209 799.193 Q164.209 790.443 167.265 785.859 Q170.343 781.253 176.153 781.253 Z" fill="#000000" fill-rule="nonzero" fill-opacity="1"></path><path clip-path="url(#clip790)" d="M101.756 533.075 Q98.1447 533.075 96.316 536.639 Q94.5104 540.181 94.5104 547.311 Q94.5104 554.417 96.316 557.982 Q98.1447 561.523 101.756 561.523 Q105.39 561.523 107.196 557.982 Q109.024 554.417 109.024 547.311 Q109.024 540.181 107.196 536.639 Q105.39 533.075 101.756 533.075 M101.756 529.371 Q107.566 529.371 110.621 533.977 Q113.7 538.561 113.7 547.311 Q113.7 556.037 110.621 560.644 Q107.566 565.227 101.756 565.227 Q95.9456 565.227 92.8669 560.644 Q89.8114 556.037 89.8114 547.311 Q89.8114 538.561 92.8669 533.977 Q95.9456 529.371 101.756 529.371 Z" fill="#000000" fill-rule="nonzero" fill-opacity="1"></path><path clip-path="url(#clip790)" d="M121.918 558.676 L126.802 558.676 L126.802 564.556 L121.918 564.556 L121.918 558.676 Z" fill="#000000" fill-rule="nonzero" fill-opacity="1"></path><path clip-path="url(#clip790)" d="M146.987 533.075 Q143.376 533.075 141.547 536.639 Q139.742 540.181 139.742 547.311 Q139.742 554.417 141.547 557.982 Q143.376 561.523 146.987 561.523 Q150.621 561.523 152.427 557.982 Q154.255 554.417 154.255 547.311 Q154.255 540.181 152.427 536.639 Q150.621 533.075 146.987 533.075 M146.987 529.371 Q152.797 529.371 155.853 533.977 Q158.931 538.561 158.931 547.311 Q158.931 556.037 155.853 560.644 Q152.797 565.227 146.987 565.227 Q141.177 565.227 138.098 560.644 Q135.043 556.037 135.043 547.311 Q135.043 538.561 138.098 533.977 Q141.177 529.371 146.987 529.371 Z" fill="#000000" fill-rule="nonzero" fill-opacity="1"></path><path clip-path="url(#clip790)" d="M167.195 529.996 L185.552 529.996 L185.552 533.931 L171.478 533.931 L171.478 542.403 Q172.496 542.056 173.515 541.894 Q174.533 541.709 175.552 541.709 Q181.339 541.709 184.718 544.88 Q188.098 548.051 188.098 553.468 Q188.098 559.047 184.626 562.148 Q181.153 565.227 174.834 565.227 Q172.658 565.227 170.39 564.857 Q168.144 564.486 165.737 563.746 L165.737 559.047 Q167.82 560.181 170.042 560.736 Q172.265 561.292 174.741 561.292 Q178.746 561.292 181.084 559.186 Q183.422 557.079 183.422 553.468 Q183.422 549.857 181.084 547.75 Q178.746 545.644 174.741 545.644 Q172.866 545.644 170.991 546.061 Q169.14 546.477 167.195 547.357 L167.195 529.996 Z" fill="#000000" fill-rule="nonzero" fill-opacity="1"></path><path clip-path="url(#clip790)" d="M100.76 281.192 Q97.1493 281.192 95.3206 284.757 Q93.515 288.299 93.515 295.428 Q93.515 302.535 95.3206 306.1 Q97.1493 309.641 100.76 309.641 Q104.395 309.641 106.2 306.1 Q108.029 302.535 108.029 295.428 Q108.029 288.299 106.2 284.757 Q104.395 281.192 100.76 281.192 M100.76 277.489 Q106.571 277.489 109.626 282.095 Q112.705 286.679 112.705 295.428 Q112.705 304.155 109.626 308.762 Q106.571 313.345 100.76 313.345 Q94.9502 313.345 91.8715 308.762 Q88.816 304.155 88.816 295.428 Q88.816 286.679 91.8715 282.095 Q94.9502 277.489 100.76 277.489 Z" fill="#000000" fill-rule="nonzero" fill-opacity="1"></path><path clip-path="url(#clip790)" d="M120.922 306.794 L125.807 306.794 L125.807 312.674 L120.922 312.674 L120.922 306.794 Z" fill="#000000" fill-rule="nonzero" fill-opacity="1"></path><path clip-path="url(#clip790)" d="M136.802 308.739 L144.441 308.739 L144.441 282.373 L136.131 284.04 L136.131 279.78 L144.394 278.114 L149.07 278.114 L149.07 308.739 L156.709 308.739 L156.709 312.674 L136.802 312.674 L136.802 308.739 Z" fill="#000000" fill-rule="nonzero" fill-opacity="1"></path><path clip-path="url(#clip790)" d="M176.153 281.192 Q172.542 281.192 170.714 284.757 Q168.908 288.299 168.908 295.428 Q168.908 302.535 170.714 306.1 Q172.542 309.641 176.153 309.641 Q179.788 309.641 181.593 306.1 Q183.422 302.535 183.422 295.428 Q183.422 288.299 181.593 284.757 Q179.788 281.192 176.153 281.192 M176.153 277.489 Q181.964 277.489 185.019 282.095 Q188.098 286.679 188.098 295.428 Q188.098 304.155 185.019 308.762 Q181.964 313.345 176.153 313.345 Q170.343 313.345 167.265 308.762 Q164.209 304.155 164.209 295.428 Q164.209 286.679 167.265 282.095 Q170.343 277.489 176.153 277.489 Z" fill="#000000" fill-rule="nonzero" fill-opacity="1"></path><polyline clip-path="url(#clip792)" style="stroke:#009af9; stroke-linecap:round; stroke-linejoin:round; stroke-width:4; stroke-opacity:1; fill:none" points="1288.43,1105.83 1289.43,1106.73 1290.44,1113.37 1291.44,1115.66 1292.44,1113.72 1293.45,1116.95 1294.45,1124.71 1295.46,1129.76 1296.46,1130.39 1297.46,1128.34 1298.47,1124.75 1299.47,1121.51 1300.48,1119.36 1301.48,1117.07 1302.48,1114.61 1303.49,1112.14 1304.49,1112.7 1305.5,1115.16 1306.5,1118.08 1307.5,1119.83 1308.51,1119.88 1309.51,1118.51 1310.52,1117.71 1311.52,1115.38 1312.52,1110.23 1313.53,1107.09 1314.53,1104.96 1315.54,1099.54 1316.54,1095.42 1317.55,1093.9 1318.55,1092.93 1319.55,1091.2 1320.56,1087.58 1321.56,1083.05 1322.57,1079.01 1323.57,1076.66 1324.57,1073.36 1325.58,1068.86 1326.58,1065.2 1327.59,1060.93 1328.59,1057.58 1329.59,1054.65 1330.6,1050.73 1331.6,1045.98 1332.61,1039.68 1333.61,1033.88 1334.61,1028.78 1335.62,1022.48 1336.62,1018.13 1337.63,1015.81 1338.63,1010.39 1339.64,1003.78 1340.64,997.503 1341.64,990.052 1342.65,985.468 1343.65,986.327 1344.66,986.822 1345.66,984.606 1346.66,981.206 1347.67,979.101 1348.67,980.165 1349.68,979.254 1350.68,973.71 1351.68,966.231 1352.69,957.14 1353.69,944.175 1354.7,927.375 1355.7,911.964 1356.7,900.333 1357.71,891.587 1358.71,885.724 1359.72,881.254 1360.72,881.779 1361.73,887.298 1362.73,891.303 1363.73,890.395 1364.74,885.635 1365.74,879.352 1366.75,872.075 1367.75,862.433 1368.75,850.956 1369.76,839.549 1370.76,829.657 1371.77,820.544 1372.77,812.599 1373.77,805.539 1374.78,800.235 1375.78,796.599 1376.79,795.427 1377.79,792.503 1378.79,788.21 1379.8,786.41 1380.8,782.782 1381.81,774.598 1382.81,766.374 1383.81,759.601 1384.82,754.071 1385.82,749.701 1386.83,744.692 1387.83,737.156 1388.84,729.3 1389.84,723.655 1390.84,718.996 1391.85,711.936 1392.85,701.577 1393.86,693.523 1394.86,688.29 1395.86,682.916 1396.87,675.532 1397.87,662.637 1398.88,649.057 1399.88,638.941 1400.88,626.216 1401.89,610.886 1402.89,598.774 1403.9,589.915 1404.9,580.991 1405.9,571.238 1406.91,563.811 1407.91,560.542 1408.92,556.702 1409.92,548.206 1410.93,539.336 1411.93,531.628 1412.93,524.971 1413.94,520.304 1414.94,518.029 1415.95,518.654 1416.95,523.267 1417.95,529.759 1418.96,535.651 1419.96,539.096 1420.97,541.329 1421.97,539.881 1422.97,534.523 1423.98,525.704 1424.98,514.728 1425.99,504.586 1426.99,495.803 1427.99,487.52 1429,480.817 1430,476.629 1431.01,475.089 1432.01,473.716 1433.01,471.085 1434.02,467.103 1435.02,462.233 1436.03,455.813 1437.03,449.729 1438.04,443.557 1439.04,433.258 1440.04,422.138 1441.05,415.486 1442.05,409.135 1443.06,401.357 1444.06,396.405 1445.06,389.289 1446.07,378.515 1447.07,370.131 1448.08,364.368 1449.08,357.552 1450.08,351.054 1451.09,347.167 1452.09,345.921 1453.1,346.164 1454.1,344.938 1455.1,338.565 1456.11,328.705 1457.11,318.035 1458.12,314.296 1459.12,318.952 1460.13,324.162 1461.13,324.042 1462.13,322.442 1463.14,321.108 1464.14,314.931 1465.15,306.284 1466.15,298.686 1467.15,292.4 1468.16,286.881 1469.16,280.981 1470.17,273.012 1471.17,263.253 1472.17,251.754 1473.18,244.852 1474.18,246.313 1475.19,250.474 1476.19,252.789 1477.19,256.037 1478.2,258.779 1479.2,258.532 1480.21,255.064 1481.21,250.931 1482.22,248.647 1483.22,244.995 1484.22,239.168 1485.23,234.68 1486.23,231.63 1487.24,227.645 1488.24,225.575 1489.24,225.181 1490.25,225.193 1491.25,229.75 1492.26,240.543 1493.26,249.412 1494.26,255.775 1495.27,264.158 1496.27,275.495 1497.28,284.909 1498.28,286.265 1499.28,283.502 1500.29,282.672 1501.29,281.01 1502.3,276.265 1503.3,267.485 1504.3,258.342 1505.31,254.299 1506.31,256.538 1507.32,262.099 1508.32,267.699 1509.33,271.435 1510.33,272.746 1511.33,273.262 1512.34,275.559 1513.34,279.671 1514.35,283.85 1515.35,289.611 1516.35,297.739 1517.36,306.216 1518.36,313.536 1519.37,319.748 1520.37,322.037 1521.37,322.971 1522.38,324.974 1523.38,325.944 1524.39,323.877 1525.39,320.149 1526.39,317.252 1527.4,314.339 1528.4,310.808 1529.41,311.853 1530.41,314.609 1531.42,313.567 1532.42,314.764 1533.42,318.126 1534.43,316.399 1535.43,317.853 1536.44,325.049 1537.44,327.804 1538.44,333.276 1539.45,347.515 1540.45,361.123 1541.46,370.293 1542.46,378.671 1543.46,385.765 1544.47,392.703 1545.47,396.927 1546.48,400.164 1547.48,405.567 1548.48,409.042 1549.49,413.704 1550.49,425.372 1551.5,439.043 1552.5,451.532 1553.51,462.314 1554.51,470.997 1555.51,478.731 1556.52,486.495 1557.52,491.968 1558.53,496.224 1559.53,500.737 1560.53,502.636 1561.54,501.58 1562.54,505.246 1563.55,514.514 1564.55,521.665 1565.55,526.987 1566.56,533.549 1567.56,541.752 1568.57,549.08 1569.57,556.624 1570.57,562.046 1571.58,566.959 1572.58,574.738 1573.59,581.395 1574.59,585.322 1575.59,587.923 1576.6,590.447 1577.6,595.137 1578.61,601.806 1579.61,610.336 1580.62,618.496 1581.62,627.509 1582.62,640.596 1583.63,653.245 1584.63,662.273 1585.64,669.876 1586.64,676.408 1587.64,681.332 1588.65,686.63 1589.65,692.705 1590.66,698.232 1591.66,701.448 1592.66,705.592 1593.67,711.917 1594.67,719.729 1595.68,727.644 1596.68,737.282 1597.68,746.464 1598.69,751.332 1599.69,757.666 1600.7,769.285 1601.7,782.226 1602.71,794.037 1603.71,803.222 1604.71,811.932 1605.72,821.212 1606.72,829.034 1607.73,833.8 1608.73,837.055 1609.73,843.396 1610.74,853.606 1611.74,861.081 1612.75,863.288 1613.75,864.045 1614.75,866.392 1615.76,868.907 1616.76,870.798 1617.77,873.816 1618.77,875.614 1619.77,876.535 1620.78,879.229 1621.78,885.387 1622.79,892.305 1623.79,899.02 1624.8,906.181 1625.8,913.477 1626.8,919.39 1627.81,922.772 1628.81,926.968 1629.82,932.675 1630.82,939.038 1631.82,946.601 1632.83,954.126 1633.83,964.682 1634.84,976.895 1635.84,987.711 1636.84,1000.64 1637.85,1012.25 1638.85,1018.71 1639.86,1024.04 1640.86,1028.37 1641.86,1031.79 1642.87,1035.39 1643.87,1038.88 1644.88,1042.07 1645.88,1043.29 1646.88,1046.54 1647.89,1051.95 1648.89,1057.14 1649.9,1061.35 1650.9,1064.2 1651.91,1067.91 1652.91,1072.72 1653.91,1076.45 1654.92,1080.29 1655.92,1084.96 1656.93,1090.26 1657.93,1092.51 1658.93,1092.34 1659.94,1091.48 1660.94,1089.59 1661.95,1088.54 1662.95,1089.78 1663.95,1092.2 1664.96,1094.52 1665.96,1095.14 1666.97,1096.04 1667.97,1096.95 1668.97,1096.05 1669.98,1093.77 1670.98,1092.76 1671.99,1092.76 1672.99,1091.73 1674,1091.43 1675,1092.47 1676,1095.07 1677.01,1099.04 1678.01,1100.24 1679.02,1098.17 1680.02,1096.63 1681.02,1094.42 1682.03,1090.28 1683.03,1088.45 1684.04,1089.07 1685.04,1089.51 1686.04,1092.02 1687.05,1094.7 1688.05,1095.61 1689.06,1095.96 1690.06,1095.46 1691.06,1094.43 1692.07,1094.4 1693.07,1094.3 1694.08,1091.82 1695.08,1090.61 1696.08,1092.81 1697.09,1092.01 1698.09,1086.93 1699.1,1082.55 1700.1,1080 1701.11,1079.46 1702.11,1078.51 1703.11,1075.75 1704.12,1072.06 1705.12,1073.19 1706.13,1080.27 1707.13,1084.73 1708.13,1082.67 1709.14,1079.51 1710.14,1075.18 1711.15,1068.92 1712.15,1062.62 1713.15,1055.19 1714.16,1045.7 1715.16,1036.32 1716.17,1027.13 1717.17,1016.48 1718.17,1005.58 1719.18,997.575 1720.18,990.922 1721.19,984.523 1722.19,980.864 1723.2,976.904 1724.2,971.71 1725.2,968.324 1726.21,966.27 1727.21,962.646 1728.22,956.784 1729.22,949.777 1730.22,941.33 1731.23,932.674 1732.23,924.793 1733.24,914.543 1734.24,904.639 1735.24,897.757 1736.25,890.39 1737.25,881.828 1738.26,875.326 1739.26,868.772 1740.26,860.226 1741.27,854.596 1742.27,852.741 1743.28,847.763 1744.28,841.657 1745.29,836.955 1746.29,829.543 1747.29,821.812 1748.3,815.293 1749.3,807.091 1750.31,798.899 1751.31,793.304 1752.31,787.019 1753.32,780.159 1754.32,777.609 1755.33,775.782 1756.33,768.464 1757.33,761.669 1758.34,757.113 1759.34,749.518 1760.35,740.441 1761.35,732.266 1762.35,724.892 1763.36,719.656 1764.36,713.726 1765.37,705.18 1766.37,695.794 1767.37,687.276 1768.38,677.354 1769.38,663.766 1770.39,651.814 1771.39,646.198 1772.4,640.71 1773.4,632.038 1774.4,624.454 1775.41,617.344 1776.41,609.082 1777.42,601.609 1778.42,594.368 1779.42,587.045 1780.43,581.937 1781.43,575.935 1782.44,569.575 1783.44,562.649 1784.44,550.934 1785.45,535.48 1786.45,521.937 1787.46,509.92 1788.46,496.89 1789.46,484.295 1790.47,476.312 1791.47,472.463 1792.48,468.233 1793.48,460.763 1794.49,453.175 1795.49,448.09 1796.49,443.955 1797.5,439.703 1798.5,433.686 1799.51,427.904 1800.51,424.513 1801.51,420.141 1802.52,415.738 1803.52,413.865 1804.53,407.49 1805.53,395.839 1806.53,383.114 1807.54,372.244 1808.54,360.976 1809.55,347.108 1810.55,333.808 1811.55,325.122 1812.56,317.961 1813.56,308.78 1814.57,299.798 1815.57,292.175 1816.58,284.833 1817.58,277.901 1818.58,270.794 1819.59,261.467 1820.59,252.344 1821.6,248.786 1822.6,250.728 1823.6,250.833 1824.61,243.411 1825.61,234.685 1826.62,229.467 1827.62,223.191 1828.62,215.364 1829.63,207.678 1830.63,204.61 1831.64,204.997 1832.64,203.985 1833.64,200.251 1834.65,197.48 1835.65,193.636 1836.66,187.611 1837.66,184.537 1838.66,182.402 1839.67,179.856 1840.67,179.429 1841.68,178.845 1842.68,178.792 1843.69,180.667 1844.69,178.527 1845.69,171.132 1846.7,164.273 1847.7,158.351 1848.71,149.272 1849.71,139.302 1850.71,134.908 1851.72,135.745 1852.72,138.285 1853.73,141.201 1854.73,140.385 1855.73,138.401 1856.74,138.299 1857.74,139.35 1858.75,141.046 1859.75,142.582 1860.75,144.586 1861.76,145.189 1862.76,140.895 1863.77,136.42 1864.77,134.537 1865.78,131.093 1866.78,126.551 1867.78,125.887 1868.79,127.824 1869.79,128.128 1870.8,128.046 1871.8,129.598 1872.8,131.89 1873.81,131.663 1874.81,127.558 1875.82,121.712 1876.82,116.499 1877.82,111.835 1878.83,109.309 1879.83,106.58 1880.84,103.51 1881.84,101.479 1882.84,101.014 1883.85,97.7108 1884.85,91.0354 1885.86,87.9763 1886.86,88.1536 1887.87,91.3338 1888.87,98.5285 1889.87,103.925 1890.88,107.915 1891.88,112.039 1892.89,115.006 1893.89,116.782 1894.89,117.171 1895.9,116.801 1896.9,118.452 1897.91,122.547 1898.91,128.781 1899.91,133.13 1900.92,134.889 1901.92,135.447 1902.93,134.449 1903.93,134.669 1904.93,136.048 1905.94,137.188 1906.94,137.086 1907.95,138.111 1908.95,140.356 1909.95,142.07 1910.96,144.143 1911.96,150.765 1912.97,159.461 1913.97,167.053 1914.98,174.613 1915.98,180.843 1916.98,185.241 1917.99,190.156 1918.99,197.321 1920,204.843 1921,210.52 1922,216.452 1923.01,226.018 1924.01,237.373 1925.02,246.708 1926.02,252.564 1927.02,256.785 1928.03,259.387 1929.03,259.425 1930.04,258.304 1931.04,257.986 1932.04,259.609 1933.05,264.643 1934.05,269.485 1935.06,275.332 1936.06,283.621 1937.07,289.755 1938.07,291.127 1939.07,293.105 1940.08,297.118 1941.08,301.598 1942.09,306.11 1943.09,311.927 1944.09,318.509 1945.1,324.122 1946.1,328.836 1947.11,336.412 1948.11,343.207 1949.11,347.345 1950.12,353.4 1951.12,361.215 1952.13,367.972 1953.13,375.566 1954.13,387.494 1955.14,400.856 1956.14,415.213 1957.15,430.415 1958.15,445.001 1959.15,460.321 1960.16,474.932 1961.16,485.204 1962.17,494.013 1963.17,504.641 1964.18,513.773 1965.18,516.679 1966.18,517.218 1967.19,521.723 1968.19,528.782 1969.2,534.287 1970.2,541.478 1971.2,551.462 1972.21,562.45 1973.21,572.267 1974.22,578.303 1975.22,581.646 1976.22,586.654 1977.23,592.301 1978.23,595.887 1979.24,599.819 1980.24,606.226 1981.24,613.727 1982.25,622.184 1983.25,632.206 1984.26,644.689 1985.26,656.123 1986.27,662.889 1987.27,670.489 1988.27,682.699 1989.28,693.436 1990.28,700.891 1991.29,709.473 1992.29,715.755 1993.29,721.324 1994.3,731.788 1995.3,745.507 1996.31,759.01 1997.31,771.956 1998.31,784.474 1999.32,798.198 2000.32,809.249 2001.33,812.381 2002.33,816.129 2003.33,825.798 2004.34,833.552 2005.34,837.65 2006.35,840.202 2007.35,843.103 2008.36,844.756 2009.36,843.743 2010.36,842.232 2011.37,842.865 2012.37,841.887 2013.38,840.65 2014.38,845.978 2015.38,854.874 2016.39,861.77 2017.39,868.678 2018.4,875.655 2019.4,879.897 2020.4,882.452 2021.41,886.986 2022.41,892.654 2023.42,896.66 2024.42,905.77 2025.42,917.304 2026.43,924.857 2027.43,929.736 2028.44,937.194 2029.44,943.623 2030.44,949.838 2031.45,956.806 2032.45,961.185 2033.46,965.143 2034.46,968.265 2035.47,970.92 2036.47,975.928 2037.47,981.192 2038.48,986.172 2039.48,994.075 2040.49,1003.02 2041.49,1009.86 2042.49,1015.26 2043.5,1022.26 2044.5,1029.55 2045.51,1036.68 2046.51,1042.28 2047.51,1048.6 2048.52,1056.44 2049.52,1064.27 2050.53,1070.81 2051.53,1075.31 2052.53,1077.43 2053.54,1076.52 2054.54,1074.36 2055.55,1076.56 2056.55,1081.11 2057.56,1083.14 2058.56,1084.85 2059.56,1090.99 2060.57,1097.87 2061.57,1100.82 2062.58,1102.47 2063.58,1105.91 2064.58,1110.3 2065.59,1114.85 2066.59,1121.09 2067.6,1128.43 2068.6,1138.7 2069.6,1149.47 2070.61,1156.42 2071.61,1159.47 2072.62,1160.21 2073.62,1160.01 2074.62,1159.38 2075.63,1159.53 2076.63,1164.07 2077.64,1169.03 2078.64,1170.05 2079.65,1166.48 2080.65,1162.49 2081.65,1159.32 2082.66,1157.52 2083.66,1158.49 2084.67,1163.23 2085.67,1169.48 2086.67,1176.48 2087.68,1182.19 2088.68,1187.28 2089.69,1189.63 2090.69,1190.12 2091.69,1191.65 2092.7,1191.49 2093.7,1187.78 2094.71,1182.11 2095.71,1176.78 2096.71,1170.79 2097.72,1164.46 2098.72,1158.75 2099.73,1150.85 2100.73,1145.26 2101.73,1143.05 2102.74,1139.7 2103.74,1137.34 2104.75,1135.29 2105.75,1135.75 2106.76,1134.33 2107.76,1131.84 2108.76,1134.38 2109.77,1141.47 2110.77,1146.82 2111.78,1151.16 2112.78,1154.26 2113.78,1155.56 2114.79,1156.17 2115.79,1157.65 2116.8,1156.87 2117.8,1151.82 2118.8,1149.26 2119.81,1151.72 2120.81,1153.75 2121.82,1151.75 2122.82,1145.2 2123.82,1139.53 2124.83,1133.31 2125.83,1125.38 2126.84,1118.29 2127.84,1115.09 2128.85,1118.05 2129.85,1123.35 2130.85,1126.21 2131.86,1126.02 2132.86,1129.73 2133.87,1139.51 2134.87,1154.62 2135.87,1163.08 2136.88,1168.79 2137.88,1174.64 2138.89,1180.64 2139.89,1181.49 2140.89,1173.68 2141.9,1162.42 2142.9,1154.01 2143.91,1145.96 2144.91,1134.39 2145.91,1124.75 2146.92,1117.58 2147.92,1112.06 2148.93,1108.49 2149.93,1102.02 2150.94,1097.73 2151.94,1094.24 2152.94,1093.59 2153.95,1100.38 2154.95,1102.89 2155.96,1097.83 2156.96,1091.61 2157.96,1087.11 2158.97,1085.84 2159.97,1086.88 2160.98,1092.92 2161.98,1099.19 2162.98,1101.09 2163.99,1098.53 2164.99,1092.67 2166,1084.84 2167,1074.43 2168,1062.54 2169.01,1053.69 2170.01,1050.55 2171.02,1051.37 2172.02,1052.19 2173.02,1053.68 2174.03,1057.89 2175.03,1060.24 2176.04,1063.78 2177.04,1071.29 2178.05,1074.5 2179.05,1068.94 2180.05,1060.67 2181.06,1055.45 2182.06,1052.16 2183.07,1047.91 2184.07,1041.77 2185.07,1039.55 2186.08,1045.04 2187.08,1047.33 2188.09,1046.55 2189.09,1049.71 2190.09,1052.68 2191.1,1050.23 2192.1,1047.36 2193.11,1046.73 2194.11,1041.36 2195.11,1038.21 2196.12,1045.17 2197.12,1051.45 2198.13,1051.13 2199.13,1056.76 2200.14,1060.69 2201.14,1057.74 2202.14,1054.99 2203.15,1057.31 2204.15,1064.05 2205.16,1071.08 2206.16,1079.74 2207.16,1088.61 2208.17,1093.04 2209.17,1090.14 2210.18,1085.35 2211.18,1084.23 2212.18,1083.03 2213.19,1075.96 2214.19,1070.81 2215.2,1070.23 2216.2,1068.84 2217.2,1067.71 2218.21,1065.73 2219.21,1068.61 2220.22,1075.24 2221.22,1074.16 2222.22,1071.81 2223.23,1073.09 2224.23,1076.72 2225.24,1083.57 2226.24,1084.16 2227.25,1080.91 2228.25,1081.04 2229.25,1088.83 2230.26,1087.34 2231.26,1076.14 2232.27,1067.76 2233.27,1068.88 2234.27,1071.09 2235.28,1075.46 2236.28,1077.81 2237.29,1071.37 2238.29,1067.75 2239.29,1070.51 2240.3,1078.55 2241.3,1084.67 2242.31,1095.36 2243.31,1104.55 2244.31,1111.44 2245.32,1110.51 2246.32,1109.62 2247.33,1112.82 2248.33,1119.53 2249.34,1127.08 2250.34,1141.77 2251.34,1159.3 2252.35,1163.37 2253.35,1153.12 2254.36,1149.41 2255.36,1155.08 2256.36,1163.54 2257.37,1166.7 2258.37,1168.82 2259.38,1174.12 2260.38,1182.64 2261.38,1192.59 2262.39,1211.19 2263.39,1227.45 2264.4,1249.16 2265.4,1271.06 2266.4,1290.68 2267.41,1296.69 2268.41,1303.19 2269.42,1308.42 2270.42,1307.19 2271.43,1307.17 2272.43,1307.78 2273.43,1301.34 2274.44,1310.74 2275.44,1332.35 2276.45,1353.85 2277.45,1354.89 2278.45,1347.63 2279.46,1324.32 2280.46,1323.38 2281.47,1332.73 2282.47,1368.48 2283.47,1403.29 2284.48,1374.41 2285.48,1315.86 2286.49,1254.1 2287.49,1216.44 2288.49,1167.22 2289.5,1097.93 2290.5,1112.24 2291.51,1236.17 2292.51,1319.13 "></polyline>
<polyline clip-path="url(#clip792)" style="stroke:#e26f46; stroke-linecap:round; stroke-linejoin:round; stroke-width:4; stroke-opacity:1; fill:none" points="1288.43,1105.71 1287.42,1109.63 1286.42,1110.7 1285.41,1111.52 1284.41,1110.79 1283.41,1108.04 1282.4,1107.5 1281.4,1104.49 1280.39,1096.69 1279.39,1089.01 1278.39,1081.44 1277.38,1074 1276.38,1068.89 1275.37,1064.03 1274.37,1060.2 1273.37,1059.64 1272.36,1059.54 1271.36,1058.04 1270.35,1057.11 1269.35,1055.12 1268.35,1048.77 1267.34,1040.12 1266.34,1033.65 1265.33,1027.68 1264.33,1019.42 1263.32,1011.73 1262.32,1006.2 1261.32,1001.7 1260.31,999.775 1259.31,999.167 1258.3,996.684 1257.3,992.38 1256.3,989.481 1255.29,985.189 1254.29,977.641 1253.28,971.412 1252.28,966.925 1251.28,963.732 1250.27,963.566 1249.27,963.742 1248.26,964.628 1247.26,967.421 1246.26,967.842 1245.25,964.858 1244.25,960.334 1243.24,955.12 1242.24,948.154 1241.23,939.296 1240.23,930.457 1239.23,922.067 1238.22,913.751 1237.22,908.574 1236.21,906.77 1235.21,902.482 1234.21,894.697 1233.2,891.413 1232.2,892.12 1231.19,890.418 1230.19,881.553 1229.19,869.117 1228.18,857.115 1227.18,841.966 1226.17,825.88 1225.17,814.115 1224.17,804.008 1223.16,794.143 1222.16,786.754 1221.15,781.991 1220.15,777.578 1219.15,770.472 1218.14,760.797 1217.14,751.398 1216.13,743.465 1215.13,734.935 1214.12,726.583 1213.12,720.414 1212.12,715.124 1211.11,711.117 1210.11,708.465 1209.1,704.634 1208.1,704.469 1207.1,704.503 1206.09,699.031 1205.09,691.111 1204.08,683.261 1203.08,674.721 1202.08,667.017 1201.07,660.211 1200.07,651.064 1199.06,639.614 1198.06,630.376 1197.06,623.314 1196.05,615.607 1195.05,611.175 1194.04,609.563 1193.04,606.982 1192.03,598.376 1191.03,585.832 1190.03,575.589 1189.02,566.847 1188.02,558.763 1187.01,552.803 1186.01,547.385 1185.01,542.037 1184,535.152 1183,526.787 1181.99,520.047 1180.99,513.42 1179.99,503.858 1178.98,491.516 1177.98,476.749 1176.97,462.982 1175.97,451.553 1174.97,441.43 1173.96,433.638 1172.96,430.114 1171.95,427.936 1170.95,425.956 1169.94,424.657 1168.94,422.363 1167.94,419.2 1166.93,412.116 1165.93,404.238 1164.92,397.024 1163.92,387.095 1162.92,376.178 1161.91,366.263 1160.91,359.297 1159.9,357.588 1158.9,359.322 1157.9,361.195 1156.89,360.314 1155.89,356.459 1154.88,348.844 1153.88,341.43 1152.88,335.115 1151.87,328.873 1150.87,320.026 1149.86,309.089 1148.86,303.202 1147.86,300.523 1146.85,296.981 1145.85,294.398 1144.84,290.709 1143.84,282.064 1142.83,273.273 1141.83,269.004 1140.83,267.545 1139.82,264.296 1138.82,261.235 1137.81,258.855 1136.81,253.798 1135.81,248.31 1134.8,247.377 1133.8,247.982 1132.79,247.504 1131.79,244.723 1130.79,239.372 1129.78,232.907 1128.78,225.477 1127.77,220.219 1126.77,218.35 1125.77,212.672 1124.76,204.961 1123.76,202.192 1122.75,202.523 1121.75,201.85 1120.74,203.289 1119.74,209.503 1118.74,212.948 1117.73,211.972 1116.73,211.477 1115.72,212.922 1114.72,211.998 1113.72,208.011 1112.71,205.851 1111.71,203.504 1110.7,199.075 1109.7,197.205 1108.7,197.065 1107.69,198.164 1106.69,199.661 1105.68,201.51 1104.68,204.732 1103.68,207.514 1102.67,205.857 1101.67,203.107 1100.66,201.87 1099.66,200.193 1098.66,201.077 1097.65,206.684 1096.65,210.676 1095.64,212.05 1094.64,215.584 1093.63,220.523 1092.63,225.351 1091.63,226.903 1090.62,224.944 1089.62,221.997 1088.61,219.61 1087.61,216.578 1086.61,213.186 1085.6,210.218 1084.6,209.27 1083.59,209.185 1082.59,208.565 1081.59,209.47 1080.58,213.512 1079.58,221.766 1078.57,231.047 1077.57,235.681 1076.57,240.971 1075.56,249.791 1074.56,255.873 1073.55,255.989 1072.55,255.87 1071.54,258.687 1070.54,261.76 1069.54,266.766 1068.53,271.55 1067.53,276.884 1066.52,281.871 1065.52,288.766 1064.52,301.582 1063.51,314.829 1062.51,325.427 1061.5,333.599 1060.5,338.648 1059.5,340.755 1058.49,343.675 1057.49,350.624 1056.48,357.8 1055.48,364.983 1054.48,372.245 1053.47,377.312 1052.47,382.187 1051.46,389.608 1050.46,398.111 1049.45,409.689 1048.45,424.67 1047.45,433.841 1046.44,439.313 1045.44,448.485 1044.43,457.131 1043.43,462.262 1042.43,466.872 1041.42,469.886 1040.42,474.87 1039.41,483.24 1038.41,487.141 1037.41,489.498 1036.4,497.02 1035.4,503.973 1034.39,507.708 1033.39,512.004 1032.39,515.529 1031.38,516.14 1030.38,519.551 1029.37,526.974 1028.37,535.234 1027.37,543.861 1026.36,552.347 1025.36,561.844 1024.35,573.143 1023.35,583.804 1022.34,592.183 1021.34,597.744 1020.34,601.853 1019.33,607.653 1018.33,611.507 1017.32,613.782 1016.32,620.107 1015.32,628.131 1014.31,631.055 1013.31,636.755 1012.3,649.012 1011.3,657.828 1010.3,662.057 1009.29,666.083 1008.29,672.106 1007.28,681.827 1006.28,692.057 1005.28,702.08 1004.27,711.704 1003.27,719.491 1002.26,727.979 1001.26,738.887 1000.25,747.54 999.251,752.653 998.247,758.307 997.243,764.84 996.238,770.976 995.234,777.888 994.23,786.571 993.226,795.492 992.222,806.42 991.218,820.179 990.214,827.772 989.21,828.848 988.206,831.8 987.202,835.295 986.198,837.996 985.194,842.255 984.189,846.852 983.185,852.667 982.181,863.875 981.177,876.503 980.173,885.622 979.169,892.12 978.165,899.121 977.161,907.134 976.157,913.613 975.153,917.816 974.149,924.032 973.145,933.956 972.14,944.717 971.136,954.098 970.132,961.444 969.128,965.722 968.124,968.396 967.12,972.663 966.116,976.755 965.112,979.877 964.108,981.407 963.104,982.424 962.1,987.798 961.096,997.213 960.091,1005.15 959.087,1010.98 958.083,1018.4 957.079,1030.22 956.075,1043.48 955.071,1055.6 954.067,1065.76 953.063,1074.04 952.059,1081.33 951.055,1085.4 950.051,1087.89 949.047,1093.99 948.042,1101 947.038,1108.27 946.034,1115.39 945.03,1121.66 944.026,1127.51 943.022,1134.83 942.018,1142.1 941.014,1146.27 940.01,1147.81 939.006,1150.28 938.002,1155.99 936.997,1164.43 935.993,1170.64 934.989,1173.55 933.985,1180.55 932.981,1187.6 931.977,1190.53 930.973,1192.66 929.969,1195.29 928.965,1197.78 927.961,1200.7 926.957,1205.72 925.953,1213.04 924.948,1218.77 923.944,1225.5 922.94,1236.18 921.936,1244.11 920.932,1247.96 919.928,1256.39 918.924,1265.92 917.92,1268.5 916.916,1267.9 915.912,1271.27 914.908,1276.81 913.904,1280.86 912.899,1283.55 911.895,1284.83 910.891,1285.05 909.887,1287.45 908.883,1290.13 907.879,1290.34 906.875,1291.31 905.871,1293.7 904.867,1294.74 903.863,1295.55 902.859,1297.98 901.855,1299.45 900.85,1302.53 899.846,1306.68 898.842,1307.38 897.838,1309.86 896.834,1318.01 895.83,1323.97 894.826,1324.04 893.822,1321.47 892.818,1320.58 891.814,1321.73 890.81,1322.32 889.806,1323.19 888.801,1325.01 887.797,1325.67 886.793,1327.45 885.789,1330.46 884.785,1331.74 883.781,1332.2 882.777,1334.93 881.773,1337.08 880.769,1334.94 879.765,1335.13 878.761,1336.81 877.757,1334.87 876.752,1333.45 875.748,1333.18 874.744,1330.94 873.74,1329.01 872.736,1327.76 871.732,1326.13 870.728,1326.27 869.724,1329.87 868.72,1333.45 867.716,1336.96 866.712,1340.73 865.708,1341.68 864.703,1339.61 863.699,1335.8 862.695,1328.64 861.691,1320.77 860.687,1315.87 859.683,1311.78 858.679,1306.61 857.675,1302.08 856.671,1300.7 855.667,1300.97 854.663,1299.73 853.659,1298.4 852.654,1296.25 851.65,1291.47 850.646,1286.92 849.642,1279.99 848.638,1272.75 847.634,1270.41 846.63,1268.53 845.626,1264.48 844.622,1263.99 843.618,1265.45 842.614,1264.61 841.61,1264.28 840.605,1264.69 839.601,1262.51 838.597,1258.92 837.593,1255.33 836.589,1253.74 835.585,1253.06 834.581,1249.79 833.577,1244.11 832.573,1237.96 831.569,1230.16 830.565,1220.34 829.561,1214.02 828.556,1210.01 827.552,1204.71 826.548,1199.87 825.544,1194.84 824.54,1191.23 823.536,1190.58 822.532,1186.71 821.528,1180.1 820.524,1175.27 819.52,1171.86 818.516,1167.37 817.512,1162.17 816.507,1156.79 815.503,1152.91 814.499,1150.18 813.495,1148.39 812.491,1148.55 811.487,1148.98 810.483,1147.93 809.479,1145.77 808.475,1144.26 807.471,1140.59 806.467,1136.28 805.462,1133.84 804.458,1131.93 803.454,1129.51 802.45,1125.88 801.446,1120.56 800.442,1113.86 799.438,1105.77 798.434,1098.26 797.43,1090.94 796.426,1083.32 795.422,1077.76 794.418,1074.25 793.413,1069.55 792.409,1066.41 791.405,1065.24 790.401,1059.27 789.397,1051.94 788.393,1048.36 787.389,1042.57 786.385,1034.46 785.381,1027.37 784.377,1020.14 783.373,1013.88 782.369,1008.97 781.364,1006.58 780.36,1004.4 779.356,1001.3 778.352,999.958 777.348,1001.77 776.344,1004.67 775.34,1004.03 774.336,1001.16 773.332,1000.22 772.328,997.294 771.324,993.751 770.32,994.011 769.315,991.976 768.311,984.722 767.307,978.703 766.303,971.533 765.299,958.804 764.295,947.439 763.291,941.71 762.287,937.4 761.283,934.136 760.279,930.895 759.275,926.762 758.271,923.399 757.266,919.036 756.262,914.483 755.258,910.998 754.254,906.092 753.25,902.335 752.246,900.427 751.242,895.697 750.238,890.888 749.234,890.314 748.23,889.019 747.226,883.761 746.222,882.408 745.217,884.644 744.213,885.561 743.209,885.589 742.205,884.935 741.201,884.023 740.197,886.81 739.193,891.653 738.189,890.004 737.185,883.14 736.181,878.916 735.177,877.336 734.173,876.935 733.168,878.43 732.164,879.987 731.16,882.969 730.156,886.17 729.152,885.981 728.148,884.449 727.144,883.103 726.14,880.226 725.136,876.295 724.132,872.639 723.128,865.889 722.124,856.596 721.119,853.237 720.115,851.79 719.111,845.463 718.107,840.514 717.103,839.826 716.099,837.035 715.095,832.779 714.091,828.978 713.087,825.433 712.083,825.211 711.079,830.911 710.075,838.584 709.07,842.041 708.066,844.032 707.062,847.321 706.058,850.397 705.054,850.645 704.05,851.08 703.046,856.701 702.042,861.172 701.038,859.539 700.034,858.832 699.03,861.129 698.026,859.791 697.021,856.565 696.017,857.267 695.013,855.717 694.009,847.989 693.005,844.351 692.001,848.218 690.997,852.924 689.993,859.991 688.989,865.767 687.985,867.288 686.981,863.835 685.977,857.653 684.972,857.652 683.968,865.616 682.964,871.904 681.96,873.355 680.956,874.95 679.952,877.365 678.948,881.559 677.944,885.383 676.94,888.719 675.936,893.792 674.932,898.607 673.927,904.153 672.923,909.513 671.919,910.164 670.915,909.242 669.911,910.766 668.907,910.306 667.903,906.857 666.899,904.783 665.895,905.351 664.891,910.101 663.887,916.723 662.883,923.856 661.878,933.759 660.874,943.453 659.87,951.793 658.866,959.494 657.862,964.128 656.858,964.385 655.854,966.039 654.85,970.262 653.846,976.241 652.842,980.61 651.838,983.094 650.834,985.814 649.829,988.447 648.825,990.767 647.821,994.779 646.817,1002.31 645.813,1008.9 644.809,1014.84 643.805,1022.31 642.801,1032.24 641.797,1044.75 640.793,1053.42 639.789,1060.03 638.785,1069.7 637.78,1078.36 636.776,1083.72 635.772,1088.81 634.768,1093.51 633.764,1095.23 632.76,1095.86 631.756,1100.86 630.752,1103.43 629.748,1100.63 628.744,1100.54 627.74,1101.03 626.736,1099.61 625.731,1103.58 624.727,1109.84 623.723,1114.79 622.719,1122.91 621.715,1132.32 620.711,1141.07 619.707,1151.08 618.703,1158.69 617.699,1163.15 616.695,1168.44 615.691,1172.7 614.687,1176.92 613.682,1181.77 612.678,1185.66 611.674,1192.18 610.67,1200.85 609.666,1206.8 608.662,1213.7 607.658,1224.42 606.654,1231.35 605.65,1233.39 604.646,1236.47 603.642,1241.24 602.638,1245.44 601.633,1247.6 600.629,1252.68 599.625,1264.61 598.621,1275.47 597.617,1279.35 596.613,1280.32 595.609,1283.78 594.605,1289.61 593.601,1299.07 592.597,1309.36 591.593,1316.33 590.589,1315.9 589.584,1316.41 588.58,1324.87 587.576,1336.77 586.572,1345.64 585.568,1350.46 584.564,1355.95 583.56,1360.75 582.556,1368.69 581.552,1378.2 580.548,1381.88 579.544,1382.1 578.54,1382.79 577.535,1387.63 576.531,1391.09 575.527,1390.54 574.523,1389.81 573.519,1392.1 572.515,1395.6 571.511,1392.04 570.507,1387.28 569.503,1388.24 568.499,1387.71 567.495,1386.24 566.491,1383.77 565.486,1383.94 564.482,1390.76 563.478,1397.53 562.474,1398.72 561.47,1398.45 560.466,1401 559.462,1402.69 558.458,1402.92 557.454,1402.75 556.45,1402.84 555.446,1404.57 554.442,1409.23 553.437,1413.64 552.433,1418.83 551.429,1424.14 550.425,1427.53 549.421,1429.74 548.417,1429.36 547.413,1428.36 546.409,1430.49 545.405,1431.51 544.401,1430.5 543.397,1431.38 542.392,1432.31 541.388,1433.56 540.384,1437.5 539.38,1442.44 538.376,1445.72 537.372,1445.05 536.368,1443.57 535.364,1444.26 534.36,1442.75 533.356,1437.9 532.352,1435.63 531.348,1435.11 530.343,1436.36 529.339,1437.55 528.335,1438.9 527.331,1440.26 526.327,1440.78 525.323,1439.31 524.319,1437.46 523.315,1435.09 522.311,1430.79 521.307,1427.53 520.303,1427.66 519.299,1427.54 518.294,1423.74 517.29,1418.49 516.286,1413.54 515.282,1410.48 514.278,1406.82 513.274,1400.56 512.27,1393.47 511.266,1387.79 510.262,1385.86 509.258,1385.44 508.254,1382.12 507.25,1378.91 506.245,1376.94 505.241,1374.55 504.237,1369.81 503.233,1364.59 502.229,1360.74 501.225,1356.05 500.221,1352.82 499.217,1353.05 498.213,1352.73 497.209,1351.85 496.205,1351.04 495.201,1346.35 494.196,1337.73 493.192,1329.3 492.188,1322.82 491.184,1319.04 490.18,1315.88 489.176,1312.75 488.172,1311.63 487.168,1312.6 486.164,1316.03 485.16,1321.26 484.156,1323.36 483.152,1318.66 482.147,1308.38 481.143,1296.28 480.139,1284.93 479.135,1275.59 478.131,1269.89 477.127,1267.53 476.123,1264.73 475.119,1258.12 474.115,1248.73 473.111,1240.53 472.107,1231.88 471.103,1220.44 470.098,1207.51 469.094,1196.51 468.09,1191.41 467.086,1190.82 466.082,1193.1 465.078,1193.28 464.074,1189.07 463.07,1181.59 462.066,1170.59 461.062,1158.41 460.058,1150.2 459.054,1145.58 458.049,1139.97 457.045,1131.48 456.041,1122.34 455.037,1114.42 454.033,1107.92 453.029,1098.7 452.025,1084.29 451.021,1072.14 450.017,1063.85 449.013,1059.61 448.009,1057.47 447.005,1055.1 446,1053.67 444.996,1054.74 443.992,1055.36 442.988,1051.95 441.984,1048.71 440.98,1045.51 439.976,1040.26 438.972,1031.25 437.968,1018.93 436.964,1007.6 435.96,992.055 434.956,972.238 433.951,953.142 432.947,944.278 431.943,941.186 430.939,932.174 429.935,920.13 428.931,910.152 427.927,900.17 426.923,893.108 425.919,894.937 424.915,898.879 423.911,898.691 422.907,896.286 421.902,893.625 420.898,892.771 419.894,888.14 418.89,876.603 417.886,864.332 416.882,856.859 415.878,848.995 414.874,838.36 413.87,830.099 412.866,823.79 411.862,815.283 410.857,806.736 409.853,798.614 408.849,792.114 407.845,787.275 406.841,782.01 405.837,774.225 404.833,771.431 403.829,770.569 402.825,765.488 401.821,758.202 400.817,754.125 399.813,748.343 398.808,734.082 397.804,716.437 396.8,703.115 395.796,694.304 394.792,688.83 393.788,686.721 392.784,683.641 391.78,675.85 390.776,661.089 389.772,646.534 388.768,642.261 387.764,638.75 386.759,631.533 385.755,629.241 384.751,632.022 383.747,627.659 382.743,615.954 381.739,607.657 380.735,603.938 379.731,596.578 378.727,589.228 377.723,581.146 376.719,572.03 375.715,570.651 374.71,571.8 373.706,561.834 372.702,546.703 371.698,534.539 370.694,528.77 369.69,534.874 368.686,542.349 367.682,540.96 366.678,534.985 365.674,528.148 364.67,531.958 363.666,539.44 362.661,538.411 361.657,527.756 360.653,522.311 359.649,524.232 358.645,525.682 357.641,525.721 356.637,526.46 355.633,527.641 354.629,527.361 353.625,535.086 352.621,541.435 351.617,541.572 350.612,534.711 349.608,529.786 348.604,523.366 347.6,525.004 346.596,522.208 345.592,513.271 344.588,503.292 343.584,495.585 342.58,487.107 341.576,473.693 340.572,455.217 339.568,440.8 338.563,439.122 337.559,442.556 336.555,443.482 335.551,443.814 334.547,439.816 333.543,441.267 332.539,453.078 331.535,455.8 330.531,454.62 329.527,465.623 328.523,470.273 327.519,470.649 326.514,478.45 325.51,477.247 324.506,468.415 323.502,475.315 322.498,485.876 321.494,488.547 320.49,488.449 319.486,479.019 318.482,462.422 317.478,458.844 316.474,454.091 315.47,452.42 314.465,456.52 313.461,469.135 312.457,478.544 311.453,497.287 310.449,509.369 309.445,487.078 308.441,472.067 307.437,484.745 306.433,512.349 305.429,530.72 304.425,538.127 303.421,541.212 302.416,532.434 301.412,528.168 300.408,550.479 299.404,549.348 298.4,535.931 297.396,533.325 296.392,520.421 295.388,518.965 294.384,516.65 293.38,510.868 292.376,511.247 291.371,516.24 290.367,545.252 289.363,582.302 288.359,590.103 287.355,565.156 286.351,621.149 285.347,677.58 284.343,647.449 "></polyline>
<path clip-path="url(#clip790)" d="M295.053 250.738 L560.349 250.738 L560.349 95.2176 L295.053 95.2176  Z" fill="#ffffff" fill-rule="evenodd" fill-opacity="1"></path>
<polyline clip-path="url(#clip790)" style="stroke:#000000; stroke-linecap:round; stroke-linejoin:round; stroke-width:4; stroke-opacity:1; fill:none" points="295.053,250.738 560.349,250.738 560.349,95.2176 295.053,95.2176 295.053,250.738 "></polyline>
<polyline clip-path="url(#clip790)" style="stroke:#009af9; stroke-linecap:round; stroke-linejoin:round; stroke-width:4; stroke-opacity:1; fill:none" points="318.705,147.058 460.615,147.058 "></polyline>
<path clip-path="url(#clip790)" d="M498.11 166.745 Q496.304 171.375 494.591 172.787 Q492.878 174.199 490.008 174.199 L486.605 174.199 L486.605 170.634 L489.105 170.634 Q490.864 170.634 491.837 169.8 Q492.809 168.967 493.989 165.865 L494.753 163.921 L484.267 138.412 L488.781 138.412 L496.883 158.689 L504.985 138.412 L509.499 138.412 L498.11 166.745 Z" fill="#000000" fill-rule="nonzero" fill-opacity="1"></path><path clip-path="url(#clip790)" d="M516.79 160.402 L524.429 160.402 L524.429 134.037 L516.119 135.703 L516.119 131.444 L524.383 129.778 L529.059 129.778 L529.059 160.402 L536.697 160.402 L536.697 164.338 L516.79 164.338 L516.79 160.402 Z" fill="#000000" fill-rule="nonzero" fill-opacity="1"></path><polyline clip-path="url(#clip790)" style="stroke:#e26f46; stroke-linecap:round; stroke-linejoin:round; stroke-width:4; stroke-opacity:1; fill:none" points="318.705,198.898 460.615,198.898 "></polyline>
<path clip-path="url(#clip790)" d="M498.11 218.585 Q496.304 223.215 494.591 224.627 Q492.878 226.039 490.008 226.039 L486.605 226.039 L486.605 222.474 L489.105 222.474 Q490.864 222.474 491.837 221.64 Q492.809 220.807 493.989 217.705 L494.753 215.761 L484.267 190.252 L488.781 190.252 L496.883 210.529 L504.985 190.252 L509.499 190.252 L498.11 218.585 Z" fill="#000000" fill-rule="nonzero" fill-opacity="1"></path><path clip-path="url(#clip790)" d="M520.008 212.242 L536.327 212.242 L536.327 216.178 L514.383 216.178 L514.383 212.242 Q517.045 209.488 521.628 204.858 Q526.235 200.205 527.415 198.863 Q529.66 196.34 530.54 194.604 Q531.443 192.844 531.443 191.155 Q531.443 188.4 529.498 186.664 Q527.577 184.928 524.475 184.928 Q522.276 184.928 519.823 185.692 Q517.392 186.455 514.614 188.006 L514.614 183.284 Q517.438 182.15 519.892 181.571 Q522.346 180.993 524.383 180.993 Q529.753 180.993 532.947 183.678 Q536.142 186.363 536.142 190.854 Q536.142 192.983 535.332 194.905 Q534.545 196.803 532.438 199.395 Q531.86 200.067 528.758 203.284 Q525.656 206.479 520.008 212.242 Z" fill="#000000" fill-rule="nonzero" fill-opacity="1"></path></svg>