<svg xmlns="http://www.w3.org/2000/svg" xmlns:xlink="http://www.w3.org/1999/xlink" width="600" height="400" viewBox="0 0 2400 1600">
<defs>
  <clipPath id="clip870">
    <rect x="0" y="0" width="2400" height="1600"></rect>
  </clipPath>
</defs>
<path clip-path="url(#clip870)" d="M0 1600 L2400 1600 L2400 0 L0 0  Z" fill="#ffffff" fill-rule="evenodd" fill-opacity="1"></path>
<defs>
  <clipPath id="clip871">
    <rect x="480" y="0" width="1681" height="1600"></rect>
  </clipPath>
</defs>
<path clip-path="url(#clip870)" d="M192.339 1486.45 L2352.76 1486.45 L2352.76 47.2441 L192.339 47.2441  Z" fill="#ffffff" fill-rule="evenodd" fill-opacity="1"></path>
<defs>
  <clipPath id="clip872">
    <rect x="192" y="47" width="2161" height="1440"></rect>
  </clipPath>
</defs>
<polyline clip-path="url(#clip872)" style="stroke:#000000; stroke-linecap:round; stroke-linejoin:round; stroke-width:2; stroke-opacity:0.1; fill:none" points="548.069,1486.45 548.069,47.2441 "></polyline>
<polyline clip-path="url(#clip872)" style="stroke:#000000; stroke-linecap:round; stroke-linejoin:round; stroke-width:2; stroke-opacity:0.1; fill:none" points="910.308,1486.45 910.308,47.2441 "></polyline>
<polyline clip-path="url(#clip872)" style="stroke:#000000; stroke-linecap:round; stroke-linejoin:round; stroke-width:2; stroke-opacity:0.1; fill:none" points="1272.55,1486.45 1272.55,47.2441 "></polyline>
<polyline clip-path="url(#clip872)" style="stroke:#000000; stroke-linecap:round; stroke-linejoin:round; stroke-width:2; stroke-opacity:0.1; fill:none" points="1634.79,1486.45 1634.79,47.2441 "></polyline>
<polyline clip-path="url(#clip872)" style="stroke:#000000; stroke-linecap:round; stroke-linejoin:round; stroke-width:2; stroke-opacity:0.1; fill:none" points="1997.03,1486.45 1997.03,47.2441 "></polyline>
<polyline clip-path="url(#clip870)" style="stroke:#000000; stroke-linecap:round; stroke-linejoin:round; stroke-width:4; stroke-opacity:1; fill:none" points="192.339,1486.45 2352.76,1486.45 "></polyline>
<polyline clip-path="url(#clip870)" style="stroke:#000000; stroke-linecap:round; stroke-linejoin:round; stroke-width:4; stroke-opacity:1; fill:none" points="548.069,1486.45 548.069,1467.55 "></polyline>
<polyline clip-path="url(#clip870)" style="stroke:#000000; stroke-linecap:round; stroke-linejoin:round; stroke-width:4; stroke-opacity:1; fill:none" points="910.308,1486.45 910.308,1467.55 "></polyline>
<polyline clip-path="url(#clip870)" style="stroke:#000000; stroke-linecap:round; stroke-linejoin:round; stroke-width:4; stroke-opacity:1; fill:none" points="1272.55,1486.45 1272.55,1467.55 "></polyline>
<polyline clip-path="url(#clip870)" style="stroke:#000000; stroke-linecap:round; stroke-linejoin:round; stroke-width:4; stroke-opacity:1; fill:none" points="1634.79,1486.45 1634.79,1467.55 "></polyline>
<polyline clip-path="url(#clip870)" style="stroke:#000000; stroke-linecap:round; stroke-linejoin:round; stroke-width:4; stroke-opacity:1; fill:none" points="1997.03,1486.45 1997.03,1467.55 "></polyline>
<path clip-path="url(#clip870)" d="M487.051 1532.02 L516.727 1532.02 L516.727 1535.95 L487.051 1535.95 L487.051 1532.02 Z" fill="#000000" fill-rule="nonzero" fill-opacity="1"></path><path clip-path="url(#clip870)" d="M526.865 1514.29 L545.222 1514.29 L545.222 1518.22 L531.148 1518.22 L531.148 1526.7 Q532.166 1526.35 533.185 1526.19 Q534.203 1526 535.222 1526 Q541.009 1526 544.388 1529.17 Q547.768 1532.34 547.768 1537.76 Q547.768 1543.34 544.296 1546.44 Q540.824 1549.52 534.504 1549.52 Q532.328 1549.52 530.06 1549.15 Q527.814 1548.78 525.407 1548.04 L525.407 1543.34 Q527.49 1544.47 529.713 1545.03 Q531.935 1545.58 534.412 1545.58 Q538.416 1545.58 540.754 1543.48 Q543.092 1541.37 543.092 1537.76 Q543.092 1534.15 540.754 1532.04 Q538.416 1529.94 534.412 1529.94 Q532.537 1529.94 530.662 1530.35 Q528.81 1530.77 526.865 1531.65 L526.865 1514.29 Z" fill="#000000" fill-rule="nonzero" fill-opacity="1"></path><path clip-path="url(#clip870)" d="M566.981 1517.37 Q563.37 1517.37 561.541 1520.93 Q559.736 1524.47 559.736 1531.6 Q559.736 1538.71 561.541 1542.27 Q563.37 1545.82 566.981 1545.82 Q570.615 1545.82 572.421 1542.27 Q574.249 1538.71 574.249 1531.6 Q574.249 1524.47 572.421 1520.93 Q570.615 1517.37 566.981 1517.37 M566.981 1513.66 Q572.791 1513.66 575.847 1518.27 Q578.925 1522.85 578.925 1531.6 Q578.925 1540.33 575.847 1544.94 Q572.791 1549.52 566.981 1549.52 Q561.171 1549.52 558.092 1544.94 Q555.037 1540.33 555.037 1531.6 Q555.037 1522.85 558.092 1518.27 Q561.171 1513.66 566.981 1513.66 Z" fill="#000000" fill-rule="nonzero" fill-opacity="1"></path><path clip-path="url(#clip870)" d="M597.143 1517.37 Q593.532 1517.37 591.703 1520.93 Q589.897 1524.47 589.897 1531.6 Q589.897 1538.71 591.703 1542.27 Q593.532 1545.82 597.143 1545.82 Q600.777 1545.82 602.583 1542.27 Q604.411 1538.71 604.411 1531.6 Q604.411 1524.47 602.583 1520.93 Q600.777 1517.37 597.143 1517.37 M597.143 1513.66 Q602.953 1513.66 606.009 1518.27 Q609.087 1522.85 609.087 1531.6 Q609.087 1540.33 606.009 1544.94 Q602.953 1549.52 597.143 1549.52 Q591.333 1549.52 588.254 1544.94 Q585.198 1540.33 585.198 1531.6 Q585.198 1522.85 588.254 1518.27 Q591.333 1513.66 597.143 1513.66 Z" fill="#000000" fill-rule="nonzero" fill-opacity="1"></path><path clip-path="url(#clip870)" d="M849.29 1532.02 L878.966 1532.02 L878.966 1535.95 L849.29 1535.95 L849.29 1532.02 Z" fill="#000000" fill-rule="nonzero" fill-opacity="1"></path><path clip-path="url(#clip870)" d="M893.086 1544.91 L909.405 1544.91 L909.405 1548.85 L887.461 1548.85 L887.461 1544.91 Q890.123 1542.16 894.706 1537.53 Q899.313 1532.88 900.493 1531.53 Q902.739 1529.01 903.618 1527.27 Q904.521 1525.51 904.521 1523.82 Q904.521 1521.07 902.577 1519.33 Q900.655 1517.6 897.554 1517.6 Q895.355 1517.6 892.901 1518.36 Q890.47 1519.13 887.693 1520.68 L887.693 1515.95 Q890.517 1514.82 892.97 1514.24 Q895.424 1513.66 897.461 1513.66 Q902.831 1513.66 906.026 1516.35 Q909.22 1519.03 909.22 1523.52 Q909.22 1525.65 908.41 1527.57 Q907.623 1529.47 905.517 1532.07 Q904.938 1532.74 901.836 1535.95 Q898.734 1539.15 893.086 1544.91 Z" fill="#000000" fill-rule="nonzero" fill-opacity="1"></path><path clip-path="url(#clip870)" d="M919.266 1514.29 L937.623 1514.29 L937.623 1518.22 L923.549 1518.22 L923.549 1526.7 Q924.567 1526.35 925.586 1526.19 Q926.604 1526 927.623 1526 Q933.41 1526 936.79 1529.17 Q940.169 1532.34 940.169 1537.76 Q940.169 1543.34 936.697 1546.44 Q933.225 1549.52 926.905 1549.52 Q924.729 1549.52 922.461 1549.15 Q920.216 1548.78 917.808 1548.04 L917.808 1543.34 Q919.891 1544.47 922.114 1545.03 Q924.336 1545.58 926.813 1545.58 Q930.817 1545.58 933.155 1543.48 Q935.493 1541.37 935.493 1537.76 Q935.493 1534.15 933.155 1532.04 Q930.817 1529.94 926.813 1529.94 Q924.938 1529.94 923.063 1530.35 Q921.211 1530.77 919.266 1531.65 L919.266 1514.29 Z" fill="#000000" fill-rule="nonzero" fill-opacity="1"></path><path clip-path="url(#clip870)" d="M959.382 1517.37 Q955.771 1517.37 953.942 1520.93 Q952.137 1524.47 952.137 1531.6 Q952.137 1538.71 953.942 1542.27 Q955.771 1545.82 959.382 1545.82 Q963.016 1545.82 964.822 1542.27 Q966.65 1538.71 966.65 1531.6 Q966.65 1524.47 964.822 1520.93 Q963.016 1517.37 959.382 1517.37 M959.382 1513.66 Q965.192 1513.66 968.248 1518.27 Q971.326 1522.85 971.326 1531.6 Q971.326 1540.33 968.248 1544.94 Q965.192 1549.52 959.382 1549.52 Q953.572 1549.52 950.493 1544.94 Q947.438 1540.33 947.438 1531.6 Q947.438 1522.85 950.493 1518.27 Q953.572 1513.66 959.382 1513.66 Z" fill="#000000" fill-rule="nonzero" fill-opacity="1"></path><path clip-path="url(#clip870)" d="M1272.55 1517.37 Q1268.94 1517.37 1267.11 1520.93 Q1265.3 1524.47 1265.3 1531.6 Q1265.3 1538.71 1267.11 1542.27 Q1268.94 1545.82 1272.55 1545.82 Q1276.18 1545.82 1277.99 1542.27 Q1279.82 1538.71 1279.82 1531.6 Q1279.82 1524.47 1277.99 1520.93 Q1276.18 1517.37 1272.55 1517.37 M1272.55 1513.66 Q1278.36 1513.66 1281.41 1518.27 Q1284.49 1522.85 1284.49 1531.6 Q1284.49 1540.33 1281.41 1544.94 Q1278.36 1549.52 1272.55 1549.52 Q1266.74 1549.52 1263.66 1544.94 Q1260.6 1540.33 1260.6 1531.6 Q1260.6 1522.85 1263.66 1518.27 Q1266.74 1513.66 1272.55 1513.66 Z" fill="#000000" fill-rule="nonzero" fill-opacity="1"></path><path clip-path="url(#clip870)" d="M1598.48 1544.91 L1614.8 1544.91 L1614.8 1548.85 L1592.85 1548.85 L1592.85 1544.91 Q1595.52 1542.16 1600.1 1537.53 Q1604.71 1532.88 1605.89 1531.53 Q1608.13 1529.01 1609.01 1527.27 Q1609.91 1525.51 1609.91 1523.82 Q1609.91 1521.07 1607.97 1519.33 Q1606.05 1517.6 1602.95 1517.6 Q1600.75 1517.6 1598.29 1518.36 Q1595.86 1519.13 1593.09 1520.68 L1593.09 1515.95 Q1595.91 1514.82 1598.36 1514.24 Q1600.82 1513.66 1602.85 1513.66 Q1608.22 1513.66 1611.42 1516.35 Q1614.61 1519.03 1614.61 1523.52 Q1614.61 1525.65 1613.8 1527.57 Q1613.02 1529.47 1610.91 1532.07 Q1610.33 1532.74 1607.23 1535.95 Q1604.13 1539.15 1598.48 1544.91 Z" fill="#000000" fill-rule="nonzero" fill-opacity="1"></path><path clip-path="url(#clip870)" d="M1624.66 1514.29 L1643.02 1514.29 L1643.02 1518.22 L1628.94 1518.22 L1628.94 1526.7 Q1629.96 1526.35 1630.98 1526.19 Q1632 1526 1633.02 1526 Q1638.8 1526 1642.18 1529.17 Q1645.56 1532.34 1645.56 1537.76 Q1645.56 1543.34 1642.09 1546.44 Q1638.62 1549.52 1632.3 1549.52 Q1630.12 1549.52 1627.85 1549.15 Q1625.61 1548.78 1623.2 1548.04 L1623.2 1543.34 Q1625.28 1544.47 1627.51 1545.03 Q1629.73 1545.58 1632.21 1545.58 Q1636.21 1545.58 1638.55 1543.48 Q1640.89 1541.37 1640.89 1537.76 Q1640.89 1534.15 1638.55 1532.04 Q1636.21 1529.94 1632.21 1529.94 Q1630.33 1529.94 1628.46 1530.35 Q1626.6 1530.77 1624.66 1531.65 L1624.66 1514.29 Z" fill="#000000" fill-rule="nonzero" fill-opacity="1"></path><path clip-path="url(#clip870)" d="M1664.77 1517.37 Q1661.16 1517.37 1659.33 1520.93 Q1657.53 1524.47 1657.53 1531.6 Q1657.53 1538.71 1659.33 1542.27 Q1661.16 1545.82 1664.77 1545.82 Q1668.41 1545.82 1670.21 1542.27 Q1672.04 1538.71 1672.04 1531.6 Q1672.04 1524.47 1670.21 1520.93 Q1668.41 1517.37 1664.77 1517.37 M1664.77 1513.66 Q1670.58 1513.66 1673.64 1518.27 Q1676.72 1522.85 1676.72 1531.6 Q1676.72 1540.33 1673.64 1544.94 Q1670.58 1549.52 1664.77 1549.52 Q1658.96 1549.52 1655.89 1544.94 Q1652.83 1540.33 1652.83 1531.6 Q1652.83 1522.85 1655.89 1518.27 Q1658.96 1513.66 1664.77 1513.66 Z" fill="#000000" fill-rule="nonzero" fill-opacity="1"></path><path clip-path="url(#clip870)" d="M1956.64 1514.29 L1975 1514.29 L1975 1518.22 L1960.93 1518.22 L1960.93 1526.7 Q1961.94 1526.35 1962.96 1526.19 Q1963.98 1526 1965 1526 Q1970.79 1526 1974.17 1529.17 Q1977.55 1532.34 1977.55 1537.76 Q1977.55 1543.34 1974.07 1546.44 Q1970.6 1549.52 1964.28 1549.52 Q1962.11 1549.52 1959.84 1549.15 Q1957.59 1548.78 1955.19 1548.04 L1955.19 1543.34 Q1957.27 1544.47 1959.49 1545.03 Q1961.71 1545.58 1964.19 1545.58 Q1968.19 1545.58 1970.53 1543.48 Q1972.87 1541.37 1972.87 1537.76 Q1972.87 1534.15 1970.53 1532.04 Q1968.19 1529.94 1964.19 1529.94 Q1962.32 1529.94 1960.44 1530.35 Q1958.59 1530.77 1956.64 1531.65 L1956.64 1514.29 Z" fill="#000000" fill-rule="nonzero" fill-opacity="1"></path><path clip-path="url(#clip870)" d="M1996.76 1517.37 Q1993.15 1517.37 1991.32 1520.93 Q1989.51 1524.47 1989.51 1531.6 Q1989.51 1538.71 1991.32 1542.27 Q1993.15 1545.82 1996.76 1545.82 Q2000.39 1545.82 2002.2 1542.27 Q2004.03 1538.71 2004.03 1531.6 Q2004.03 1524.47 2002.2 1520.93 Q2000.39 1517.37 1996.76 1517.37 M1996.76 1513.66 Q2002.57 1513.66 2005.63 1518.27 Q2008.7 1522.85 2008.7 1531.6 Q2008.7 1540.33 2005.63 1544.94 Q2002.57 1549.52 1996.76 1549.52 Q1990.95 1549.52 1987.87 1544.94 Q1984.82 1540.33 1984.82 1531.6 Q1984.82 1522.85 1987.87 1518.27 Q1990.95 1513.66 1996.76 1513.66 Z" fill="#000000" fill-rule="nonzero" fill-opacity="1"></path><path clip-path="url(#clip870)" d="M2026.92 1517.37 Q2023.31 1517.37 2021.48 1520.93 Q2019.68 1524.47 2019.68 1531.6 Q2019.68 1538.71 2021.48 1542.27 Q2023.31 1545.82 2026.92 1545.82 Q2030.56 1545.82 2032.36 1542.27 Q2034.19 1538.71 2034.19 1531.6 Q2034.19 1524.47 2032.36 1520.93 Q2030.56 1517.37 2026.92 1517.37 M2026.92 1513.66 Q2032.73 1513.66 2035.79 1518.27 Q2038.87 1522.85 2038.87 1531.6 Q2038.87 1540.33 2035.79 1544.94 Q2032.73 1549.52 2026.92 1549.52 Q2021.11 1549.52 2018.03 1544.94 Q2014.98 1540.33 2014.98 1531.6 Q2014.98 1522.85 2018.03 1518.27 Q2021.11 1513.66 2026.92 1513.66 Z" fill="#000000" fill-rule="nonzero" fill-opacity="1"></path><polyline clip-path="url(#clip872)" style="stroke:#000000; stroke-linecap:round; stroke-linejoin:round; stroke-width:2; stroke-opacity:0.1; fill:none" points="192.339,1198.68 2352.76,1198.68 "></polyline>
<polyline clip-path="url(#clip872)" style="stroke:#000000; stroke-linecap:round; stroke-linejoin:round; stroke-width:2; stroke-opacity:0.1; fill:none" points="192.339,826.387 2352.76,826.387 "></polyline>
<polyline clip-path="url(#clip872)" style="stroke:#000000; stroke-linecap:round; stroke-linejoin:round; stroke-width:2; stroke-opacity:0.1; fill:none" points="192.339,454.098 2352.76,454.098 "></polyline>
<polyline clip-path="url(#clip872)" style="stroke:#000000; stroke-linecap:round; stroke-linejoin:round; stroke-width:2; stroke-opacity:0.1; fill:none" points="192.339,81.8102 2352.76,81.8102 "></polyline>
<polyline clip-path="url(#clip870)" style="stroke:#000000; stroke-linecap:round; stroke-linejoin:round; stroke-width:4; stroke-opacity:1; fill:none" points="192.339,1486.45 192.339,47.2441 "></polyline>
<polyline clip-path="url(#clip870)" style="stroke:#000000; stroke-linecap:round; stroke-linejoin:round; stroke-width:4; stroke-opacity:1; fill:none" points="192.339,1198.68 211.236,1198.68 "></polyline>
<polyline clip-path="url(#clip870)" style="stroke:#000000; stroke-linecap:round; stroke-linejoin:round; stroke-width:4; stroke-opacity:1; fill:none" points="192.339,826.387 211.236,826.387 "></polyline>
<polyline clip-path="url(#clip870)" style="stroke:#000000; stroke-linecap:round; stroke-linejoin:round; stroke-width:4; stroke-opacity:1; fill:none" points="192.339,454.098 211.236,454.098 "></polyline>
<polyline clip-path="url(#clip870)" style="stroke:#000000; stroke-linecap:round; stroke-linejoin:round; stroke-width:4; stroke-opacity:1; fill:none" points="192.339,81.8102 211.236,81.8102 "></polyline>
<path clip-path="url(#clip870)" d="M50.9921 1199.13 L80.6679 1199.13 L80.6679 1203.06 L50.9921 1203.06 L50.9921 1199.13 Z" fill="#000000" fill-rule="nonzero" fill-opacity="1"></path><path clip-path="url(#clip870)" d="M100.76 1184.47 Q97.1493 1184.47 95.3206 1188.04 Q93.515 1191.58 93.515 1198.71 Q93.515 1205.82 95.3206 1209.38 Q97.1493 1212.92 100.76 1212.92 Q104.395 1212.92 106.2 1209.38 Q108.029 1205.82 108.029 1198.71 Q108.029 1191.58 106.2 1188.04 Q104.395 1184.47 100.76 1184.47 M100.76 1180.77 Q106.571 1180.77 109.626 1185.38 Q112.705 1189.96 112.705 1198.71 Q112.705 1207.44 109.626 1212.04 Q106.571 1216.63 100.76 1216.63 Q94.9502 1216.63 91.8715 1212.04 Q88.816 1207.44 88.816 1198.71 Q88.816 1189.96 91.8715 1185.38 Q94.9502 1180.77 100.76 1180.77 Z" fill="#000000" fill-rule="nonzero" fill-opacity="1"></path><path clip-path="url(#clip870)" d="M120.922 1210.08 L125.807 1210.08 L125.807 1215.96 L120.922 1215.96 L120.922 1210.08 Z" fill="#000000" fill-rule="nonzero" fill-opacity="1"></path><path clip-path="url(#clip870)" d="M140.019 1212.02 L156.339 1212.02 L156.339 1215.96 L134.394 1215.96 L134.394 1212.02 Q137.056 1209.27 141.64 1204.64 Q146.246 1199.98 147.427 1198.64 Q149.672 1196.12 150.552 1194.38 Q151.455 1192.62 151.455 1190.93 Q151.455 1188.18 149.51 1186.44 Q147.589 1184.71 144.487 1184.71 Q142.288 1184.71 139.834 1185.47 Q137.404 1186.23 134.626 1187.78 L134.626 1183.06 Q137.45 1181.93 139.904 1181.35 Q142.357 1180.77 144.394 1180.77 Q149.765 1180.77 152.959 1183.46 Q156.154 1186.14 156.154 1190.63 Q156.154 1192.76 155.343 1194.68 Q154.556 1196.58 152.45 1199.17 Q151.871 1199.84 148.769 1203.06 Q145.668 1206.26 140.019 1212.02 Z" fill="#000000" fill-rule="nonzero" fill-opacity="1"></path><path clip-path="url(#clip870)" d="M99.1632 812.185 Q95.5521 812.185 93.7234 815.75 Q91.9178 819.292 91.9178 826.421 Q91.9178 833.528 93.7234 837.093 Q95.5521 840.634 99.1632 840.634 Q102.797 840.634 104.603 837.093 Q106.432 833.528 106.432 826.421 Q106.432 819.292 104.603 815.75 Q102.797 812.185 99.1632 812.185 M99.1632 808.482 Q104.973 808.482 108.029 813.088 Q111.108 817.672 111.108 826.421 Q111.108 835.148 108.029 839.755 Q104.973 844.338 99.1632 844.338 Q93.353 844.338 90.2743 839.755 Q87.2188 835.148 87.2188 826.421 Q87.2188 817.672 90.2743 813.088 Q93.353 808.482 99.1632 808.482 Z" fill="#000000" fill-rule="nonzero" fill-opacity="1"></path><path clip-path="url(#clip870)" d="M119.325 837.787 L124.209 837.787 L124.209 843.667 L119.325 843.667 L119.325 837.787 Z" fill="#000000" fill-rule="nonzero" fill-opacity="1"></path><path clip-path="url(#clip870)" d="M144.394 812.185 Q140.783 812.185 138.955 815.75 Q137.149 819.292 137.149 826.421 Q137.149 833.528 138.955 837.093 Q140.783 840.634 144.394 840.634 Q148.029 840.634 149.834 837.093 Q151.663 833.528 151.663 826.421 Q151.663 819.292 149.834 815.75 Q148.029 812.185 144.394 812.185 M144.394 808.482 Q150.205 808.482 153.26 813.088 Q156.339 817.672 156.339 826.421 Q156.339 835.148 153.26 839.755 Q150.205 844.338 144.394 844.338 Q138.584 844.338 135.506 839.755 Q132.45 835.148 132.45 826.421 Q132.45 817.672 135.506 813.088 Q138.584 808.482 144.394 808.482 Z" fill="#000000" fill-rule="nonzero" fill-opacity="1"></path><path clip-path="url(#clip870)" d="M100.76 439.897 Q97.1493 439.897 95.3206 443.462 Q93.515 447.004 93.515 454.133 Q93.515 461.24 95.3206 464.804 Q97.1493 468.346 100.76 468.346 Q104.395 468.346 106.2 464.804 Q108.029 461.24 108.029 454.133 Q108.029 447.004 106.2 443.462 Q104.395 439.897 100.76 439.897 M100.76 436.194 Q106.571 436.194 109.626 440.8 Q112.705 445.383 112.705 454.133 Q112.705 462.86 109.626 467.466 Q106.571 472.05 100.76 472.05 Q94.9502 472.05 91.8715 467.466 Q88.816 462.86 88.816 454.133 Q88.816 445.383 91.8715 440.8 Q94.9502 436.194 100.76 436.194 Z" fill="#000000" fill-rule="nonzero" fill-opacity="1"></path><path clip-path="url(#clip870)" d="M120.922 465.499 L125.807 465.499 L125.807 471.378 L120.922 471.378 L120.922 465.499 Z" fill="#000000" fill-rule="nonzero" fill-opacity="1"></path><path clip-path="url(#clip870)" d="M140.019 467.443 L156.339 467.443 L156.339 471.378 L134.394 471.378 L134.394 467.443 Q137.056 464.689 141.64 460.059 Q146.246 455.406 147.427 454.064 Q149.672 451.541 150.552 449.805 Q151.455 448.045 151.455 446.355 Q151.455 443.601 149.51 441.865 Q147.589 440.129 144.487 440.129 Q142.288 440.129 139.834 440.893 Q137.404 441.656 134.626 443.207 L134.626 438.485 Q137.45 437.351 139.904 436.772 Q142.357 436.194 144.394 436.194 Q149.765 436.194 152.959 438.879 Q156.154 441.564 156.154 446.055 Q156.154 448.184 155.343 450.105 Q154.556 452.004 152.45 454.596 Q151.871 455.267 148.769 458.485 Q145.668 461.679 140.019 467.443 Z" fill="#000000" fill-rule="nonzero" fill-opacity="1"></path><path clip-path="url(#clip870)" d="M98.6771 67.6089 Q95.066 67.6089 93.2373 71.1737 Q91.4317 74.7154 91.4317 81.845 Q91.4317 88.9514 93.2373 92.5162 Q95.066 96.0578 98.6771 96.0578 Q102.311 96.0578 104.117 92.5162 Q105.946 88.9514 105.946 81.845 Q105.946 74.7154 104.117 71.1737 Q102.311 67.6089 98.6771 67.6089 M98.6771 63.9052 Q104.487 63.9052 107.543 68.5117 Q110.621 73.095 110.621 81.845 Q110.621 90.5718 107.543 95.1782 Q104.487 99.7615 98.6771 99.7615 Q92.8669 99.7615 89.7882 95.1782 Q86.7327 90.5718 86.7327 81.845 Q86.7327 73.095 89.7882 68.5117 Q92.8669 63.9052 98.6771 63.9052 Z" fill="#000000" fill-rule="nonzero" fill-opacity="1"></path><path clip-path="url(#clip870)" d="M118.839 93.2106 L123.723 93.2106 L123.723 99.0902 L118.839 99.0902 L118.839 93.2106 Z" fill="#000000" fill-rule="nonzero" fill-opacity="1"></path><path clip-path="url(#clip870)" d="M146.756 68.6043 L134.95 87.0533 L146.756 87.0533 L146.756 68.6043 M145.529 64.5302 L151.408 64.5302 L151.408 87.0533 L156.339 87.0533 L156.339 90.9421 L151.408 90.9421 L151.408 99.0902 L146.756 99.0902 L146.756 90.9421 L131.154 90.9421 L131.154 86.4283 L145.529 64.5302 Z" fill="#000000" fill-rule="nonzero" fill-opacity="1"></path><polyline clip-path="url(#clip872)" style="stroke:#009af9; stroke-linecap:round; stroke-linejoin:round; stroke-width:4; stroke-opacity:1; fill:none" points="1272.55,164.248 1273.57,164.878 1274.59,164.55 1275.6,163.353 1276.62,163.85 1277.64,165.381 1278.66,165.519 1279.68,166.576 1280.7,169.953 1281.72,170.442 1282.74,169.829 1283.76,171.924 1284.78,173.963 1285.8,176.01 1286.81,179.027 1287.83,180.294 1288.85,182.108 1289.87,185.487 1290.89,187.126 1291.91,188.244 1292.93,190.614 1293.95,191.924 1294.97,192.505 1295.99,193.091 1297,194.64 1298.02,197.677 1299.04,200.265 1300.06,203.928 1301.08,208.694 1302.1,212.02 1303.12,214.17 1304.14,217.38 1305.16,222.076 1306.18,224.256 1307.2,225.719 1308.21,229.542 1309.23,232.67 1310.25,234.702 1311.27,237.725 1312.29,239.489 1313.31,241.447 1314.33,246.283 1315.35,250.531 1316.37,252.766 1317.39,254.73 1318.41,257.458 1319.42,260.784 1320.44,265.327 1321.46,268.036 1322.48,271.122 1323.5,276.069 1324.52,281.295 1325.54,283.917 1326.56,286.552 1327.58,289.442 1328.6,292.932 1329.61,298.423 1330.63,301.071 1331.65,304.185 1332.67,309.933 1333.69,316.057 1334.71,322.879 1335.73,326.683 1336.75,329.237 1337.77,334.371 1338.79,339.283 1339.81,342.527 1340.82,346.483 1341.84,349.645 1342.86,351.76 1343.88,355.068 1344.9,359.116 1345.92,362.91 1346.94,366.609 1347.96,369.919 1348.98,373.149 1350,374.931 1351.02,375.966 1352.03,379.856 1353.05,384.264 1354.07,388.55 1355.09,393.397 1356.11,398.442 1357.13,404.275 1358.15,410.863 1359.17,415.659 1360.19,419.028 1361.21,421.302 1362.23,424.151 1363.24,427.92 1364.26,431.272 1365.28,436.709 1366.3,443.323 1367.32,449.722 1368.34,455.245 1369.36,460.905 1370.38,467.774 1371.4,473.503 1372.42,478.965 1373.43,483.86 1374.45,488.034 1375.47,492.622 1376.49,498.487 1377.51,504.401 1378.53,509.648 1379.55,515.14 1380.57,520.641 1381.59,526.217 1382.61,531.394 1383.63,534.871 1384.64,537.802 1385.66,542.749 1386.68,546.119 1387.7,549.01 1388.72,553.658 1389.74,557.666 1390.76,561.704 1391.78,566.538 1392.8,572.498 1393.82,578.405 1394.84,582.447 1395.85,586.648 1396.87,591.379 1397.89,595.126 1398.91,598.246 1399.93,602.04 1400.95,607.648 1401.97,613.515 1402.99,619.152 1404.01,626.413 1405.03,634.135 1406.04,641.211 1407.06,647.985 1408.08,653.266 1409.1,656.231 1410.12,658.487 1411.14,662.678 1412.16,668.221 1413.18,673.177 1414.2,678.383 1415.22,684.984 1416.24,690.474 1417.25,694.631 1418.27,698.946 1419.29,704.199 1420.31,709.861 1421.33,714.908 1422.35,720.776 1423.37,726.929 1424.39,732.063 1425.41,736.636 1426.43,741.924 1427.45,748.674 1428.46,754.736 1429.48,760.646 1430.5,767.225 1431.52,772.843 1432.54,777.746 1433.56,783.382 1434.58,790.526 1435.6,796.157 1436.62,800.677 1437.64,807.621 1438.65,815.584 1439.67,822.056 1440.69,827.623 1441.71,833.19 1442.73,839.058 1443.75,843.77 1444.77,847.408 1445.79,851.55 1446.81,856.022 1447.83,861.184 1448.85,866.675 1449.86,872.419 1450.88,878.391 1451.9,884.943 1452.92,890.477 1453.94,894.76 1454.96,900.488 1455.98,907.458 1457,913.411 1458.02,918.224 1459.04,924.085 1460.06,931.066 1461.07,937.017 1462.09,943.429 1463.11,951.458 1464.13,958.186 1465.15,963.789 1466.17,971.473 1467.19,979.091 1468.21,985.421 1469.23,990.717 1470.25,995.056 1471.26,1001.63 1472.28,1009.2 1473.3,1016.2 1474.32,1022.96 1475.34,1028.54 1476.36,1034.73 1477.38,1041.35 1478.4,1047.05 1479.42,1051.95 1480.44,1056.14 1481.46,1059.43 1482.47,1062.56 1483.49,1067.26 1484.51,1072.77 1485.53,1077.93 1486.55,1082.77 1487.57,1087.48 1488.59,1092.89 1489.61,1098.14 1490.63,1103.09 1491.65,1107.75 1492.67,1112.32 1493.68,1116.56 1494.7,1120.97 1495.72,1126.17 1496.74,1131.68 1497.76,1137.31 1498.78,1143.13 1499.8,1148.76 1500.82,1154.03 1501.84,1159.33 1502.86,1164.3 1503.88,1168.57 1504.89,1172.78 1505.91,1177.22 1506.93,1181.79 1507.95,1185.65 1508.97,1190.06 1509.99,1195.31 1511.01,1199.38 1512.03,1203.58 1513.05,1208.72 1514.07,1213.53 1515.08,1218.14 1516.1,1222.66 1517.12,1226.97 1518.14,1231.23 1519.16,1235.39 1520.18,1239.92 1521.2,1244.98 1522.22,1249.8 1523.24,1254.41 1524.26,1259.07 1525.28,1263.56 1526.29,1267.82 1527.31,1271.54 1528.33,1275.05 1529.35,1278.57 1530.37,1281.87 1531.39,1285.06 1532.41,1288.21 1533.43,1291.12 1534.45,1294.06 1535.47,1297.24 1536.49,1300.28 1537.5,1303.09 1538.52,1305.97 1539.54,1309.11 1540.56,1312.28 1541.58,1315.83 1542.6,1319.31 1543.62,1322.46 1544.64,1326.22 1545.66,1329.92 1546.68,1333.32 1547.69,1336.69 1548.71,1340.31 1549.73,1344.02 1550.75,1347.74 1551.77,1351.42 1552.79,1354.75 1553.81,1357.58 1554.83,1360.61 1555.85,1363.69 1556.87,1366.53 1557.89,1369.84 1558.9,1373.16 1559.92,1375.83 1560.94,1378.56 1561.96,1381.44 1562.98,1383.52 1564,1385.51 1565.02,1387.82 1566.04,1389.9 1567.06,1391.66 1568.08,1393.39 1569.1,1394.99 1570.11,1396.69 1571.13,1398.48 1572.15,1400.05 1573.17,1401.78 1574.19,1403.78 1575.21,1405.69 1576.23,1407.67 1577.25,1409.53 1578.27,1411.61 1579.29,1413.87 1580.3,1415.76 1581.32,1417.4 1582.34,1418.97 1583.36,1420.58 1584.38,1422.44 1585.4,1424.18 1586.42,1425.48 1587.44,1426.91 1588.46,1428.57 1589.48,1429.91 1590.5,1430.95 1591.51,1432.18 1592.53,1433.41 1593.55,1434.14 1594.57,1435.01 1595.59,1436.27 1596.61,1437.05 1597.63,1437.57 1598.65,1438.53 1599.67,1439.35 1600.69,1439.89 1601.71,1440.61 1602.72,1441.34 1603.74,1441.88 1604.76,1442.57 1605.78,1443.14 1606.8,1443.54 1607.82,1444.03 1608.84,1444.39 1609.86,1444.57 1610.88,1444.78 1611.9,1444.92 1612.91,1445.07 1613.93,1445.16 1614.95,1445.31 1615.97,1445.46 1616.99,1445.49 1618.01,1445.64 1619.03,1445.72 1620.05,1445.47 1621.07,1445.19 1622.09,1444.82 1623.11,1444.24 1624.12,1443.8 1625.14,1443.33 1626.16,1442.66 1627.18,1442.06 1628.2,1441.62 1629.22,1440.97 1630.24,1440.17 1631.26,1439.19 1632.28,1438.11 1633.3,1437.17 1634.32,1435.97 1635.33,1434.92 1636.35,1434.18 1637.37,1433.41 1638.39,1432.65 1639.41,1432.14 1640.43,1431.45 1641.45,1430.39 1642.47,1429.4 1643.49,1428.18 1644.51,1426.92 1645.53,1425.72 1646.54,1424.16 1647.56,1422.65 1648.58,1421.17 1649.6,1419.53 1650.62,1418.01 1651.64,1416.57 1652.66,1414.86 1653.68,1412.96 1654.7,1411.36 1655.72,1409.62 1656.73,1407.41 1657.75,1405.11 1658.77,1403.01 1659.79,1400.62 1660.81,1397.97 1661.83,1395.55 1662.85,1393.23 1663.87,1391.23 1664.89,1389.42 1665.91,1387.63 1666.93,1385.61 1667.94,1383.5 1668.96,1381.44 1669.98,1379.4 1671,1377.29 1672.02,1374.71 1673.04,1371.71 1674.06,1368.82 1675.08,1365.61 1676.1,1362.53 1677.12,1359.77 1678.14,1357.44 1679.15,1355.17 1680.17,1352.51 1681.19,1349.76 1682.21,1347.38 1683.23,1344.57 1684.25,1341.23 1685.27,1338.18 1686.29,1334.47 1687.31,1331.02 1688.33,1327.81 1689.34,1324.56 1690.36,1321.69 1691.38,1318.61 1692.4,1315.33 1693.42,1312.42 1694.44,1309.54 1695.46,1307.02 1696.48,1304.02 1697.5,1300.28 1698.52,1296.36 1699.54,1292.65 1700.55,1289.55 1701.57,1285.97 1702.59,1281.53 1703.61,1277.46 1704.63,1273.74 1705.65,1270.24 1706.67,1267.67 1707.69,1265.2 1708.71,1261.95 1709.73,1257.84 1710.75,1254.37 1711.76,1250.99 1712.78,1247.28 1713.8,1244 1714.82,1241.1 1715.84,1237.53 1716.86,1232.97 1717.88,1228.55 1718.9,1224 1719.92,1219.43 1720.94,1215.72 1721.95,1212.38 1722.97,1209.05 1723.99,1206 1725.01,1202.55 1726.03,1198.96 1727.05,1195.74 1728.07,1192.01 1729.09,1188.1 1730.11,1184.37 1731.13,1180.12 1732.15,1175.63 1733.16,1171.67 1734.18,1168.25 1735.2,1164.77 1736.22,1161.34 1737.24,1158.12 1738.26,1154.44 1739.28,1149.23 1740.3,1144.2 1741.32,1139.44 1742.34,1133.89 1743.36,1128.31 1744.37,1123.3 1745.39,1117.51 1746.41,1112.04 1747.43,1107.64 1748.45,1103.29 1749.47,1099.3 1750.49,1095.42 1751.51,1090.75 1752.53,1085.61 1753.55,1080.67 1754.56,1075.22 1755.58,1069.79 1756.6,1064.81 1757.62,1060.47 1758.64,1057.54 1759.66,1054.81 1760.68,1051.41 1761.7,1047.58 1762.72,1043.13 1763.74,1038.39 1764.76,1032.54 1765.77,1026 1766.79,1020.87 1767.81,1016.95 1768.83,1013.51 1769.85,1009.59 1770.87,1004.72 1771.89,999.556 1772.91,993.607 1773.93,987.739 1774.95,983.819 1775.97,979.717 1776.98,974.519 1778,969.087 1779.02,963.573 1780.04,957.611 1781.06,952.958 1782.08,949.829 1783.1,946.34 1784.12,940.75 1785.14,933.39 1786.16,927.724 1787.18,924.15 1788.19,921.561 1789.21,918.633 1790.23,913.323 1791.25,907.937 1792.27,904.159 1793.29,899.992 1794.31,894.383 1795.33,887.53 1796.35,881.143 1797.37,878.04 1798.38,874.931 1799.4,870.689 1800.42,866.524 1801.44,862.895 1802.46,859.662 1803.48,854.862 1804.5,849.483 1805.52,846.43 1806.54,843.373 1807.56,838.31 1808.58,833.872 1809.59,830.67 1810.61,827.009 1811.63,820.997 1812.65,815.973 1813.67,812.368 1814.69,807.552 1815.71,802.145 1816.73,797.867 1817.75,794.894 1818.77,791.538 1819.79,787.819 1820.8,782.879 1821.82,777.481 1822.84,774.494 1823.86,772.558 1824.88,767.931 1825.9,764.191 1826.92,761.655 1827.94,757.101 1828.96,751.996 1829.98,746.914 1830.99,740.711 1832.01,736.123 1833.03,731.842 1834.05,725.324 1835.07,721.375 1836.09,718.907 1837.11,713.911 1838.13,710.818 1839.15,707.012 1840.17,703.151 1841.19,702.347 1842.2,700.288 1843.22,697.172 1844.24,693.745 1845.26,689.281 1846.28,685.788 1847.3,683.503 1848.32,681.148 1849.34,678.481 1850.36,676.567 1851.38,673.981 1852.4,669.667 1853.41,664.735 1854.43,659.757 1855.45,654.547 1856.47,649.035 1857.49,643.893 1858.51,640.591 1859.53,637.511 1860.55,633.168 1861.57,628.886 1862.59,624.709 1863.6,619.737 1864.62,616.636 1865.64,614.559 1866.66,611.313 1867.68,609.266 1868.7,606.405 1869.72,603.317 1870.74,600.629 1871.76,597.021 1872.78,594.278 1873.8,591.646 1874.81,588.943 1875.83,586.405 1876.85,582.85 1877.87,580.248 1878.89,578.45 1879.91,576.426 1880.93,574.731 1881.95,572.052 1882.97,570.304 1883.99,568.26 1885.01,566.032 1886.02,565.204 1887.04,564.232 1888.06,560.793 1889.08,558.584 1890.1,556.623 1891.12,552.362 1892.14,551.168 1893.16,550.634 1894.18,548.033 1895.2,545.875 1896.21,544.528 1897.23,541.13 1898.25,538.134 1899.27,535.236 1900.29,533.964 1901.31,532.559 1902.33,528.75 1903.35,526.075 1904.37,524.589 1905.39,521.615 1906.41,517.331 1907.42,514.373 1908.44,512.947 1909.46,510.462 1910.48,508.183 1911.5,507.561 1912.52,506.124 1913.54,504.275 1914.56,503.07 1915.58,500.45 1916.6,498.173 1917.62,499.441 1918.63,500.541 1919.65,499.168 1920.67,498.227 1921.69,498.353 1922.71,497.797 1923.73,495.242 1924.75,494.033 1925.77,494.601 1926.79,492.981 1927.81,490.723 1928.82,488.932 1929.84,489.647 1930.86,490.756 1931.88,489.919 1932.9,490.08 1933.92,490.035 1934.94,488.605 1935.96,487.756 1936.98,488.63 1938,488.606 1939.02,488.885 1940.03,490.495 1941.05,490.977 1942.07,491.63 1943.09,492.472 1944.11,491.268 1945.13,491.052 1946.15,493.112 1947.17,491.99 1948.19,488.593 1949.21,487.426 1950.23,486.207 1951.24,483.907 1952.26,482.965 1953.28,483.118 1954.3,483.867 1955.32,486.045 1956.34,488.727 1957.36,488.476 1958.38,488.225 1959.4,489.976 1960.42,491.274 1961.44,491.547 1962.45,492.945 1963.47,493.706 1964.49,494.571 1965.51,494.897 1966.53,493.586 1967.55,494.111 1968.57,495.476 1969.59,495.149 1970.61,495.232 1971.63,496.008 1972.64,496.147 1973.66,496.252 1974.68,494.742 1975.7,494.964 1976.72,497.39 1977.74,498.429 1978.76,499.395 1979.78,500.82 1980.8,501.674 1981.82,501.919 1982.84,504.094 1983.85,506.855 1984.87,506.388 1985.89,505.931 1986.91,505.717 1987.93,506.34 1988.95,508.971 1989.97,510.826 1990.99,509.443 1992.01,509.926 1993.03,512.481 1994.05,512.812 1995.06,513.543 1996.08,515.355 1997.1,514.653 1998.12,515.071 1999.14,516.519 2000.16,518.557 2001.18,520.193 2002.2,520.93 2003.22,524.4 2004.24,529.604 2005.25,533.686 2006.27,535.02 2007.29,535.354 2008.31,536.471 2009.33,540.045 2010.35,542.305 2011.37,541.743 2012.39,543.49 2013.41,545.335 2014.43,545.014 2015.45,546.431 2016.46,548.425 2017.48,549.929 2018.5,552.256 2019.52,554.182 2020.54,557.988 2021.56,560.535 2022.58,563.08 2023.6,568.217 2024.62,573.98 2025.64,578.407 2026.66,582.54 2027.67,586.247 2028.69,589.848 2029.71,593.433 2030.73,597.048 2031.75,600.523 2032.77,601.677 2033.79,603.169 2034.81,608.588 2035.83,613.852 2036.85,615.791 2037.86,616.758 2038.88,619.135 2039.9,622.373 2040.92,625.968 2041.94,629.306 2042.96,632.885 2043.98,635.805 2045,639.989 2046.02,643.125 2047.04,643.056 2048.06,646.116 2049.07,651.811 2050.09,655.754 2051.11,657.79 2052.13,661.566 2053.15,665.927 2054.17,668.028 2055.19,667.629 2056.21,668.68 2057.23,671.372 2058.25,673.866 2059.27,677.774 2060.28,679.58 2061.3,681.488 2062.32,684.262 2063.34,685.104 2064.36,685.948 2065.38,686.952 2066.4,688.228 2067.42,692.135 2068.44,696.812 2069.46,701.514 2070.47,707.666 2071.49,712.873 2072.51,716.625 2073.53,719.993 2074.55,722.631 2075.57,725.558 2076.59,730.354 2077.61,734.778 2078.63,737.918 2079.65,741.329 2080.67,743.898 2081.68,744.578 2082.7,743.327 2083.72,744.03 2084.74,747.286 2085.76,751.771 2086.78,755.596 2087.8,759.08 2088.82,764.845 2089.84,770.001 2090.86,776.325 2091.88,784.605 2092.89,792.695 2093.91,800.314 2094.93,806.27 2095.95,810.904 2096.97,813.537 2097.99,815.02 2099.01,817 2100.03,819.639 2101.05,821.11 2102.07,824.284 2103.09,828.402 2104.1,831.368 2105.12,835.496 2106.14,841.489 2107.16,846.454 2108.18,850.939 2109.2,857.461 2110.22,862.566 2111.24,867.902 2112.26,873.695 2113.28,880.336 2114.29,885.82 2115.31,888.734 2116.33,892.156 2117.35,895.263 2118.37,898.621 2119.39,902.422 2120.41,905.625 2121.43,910.46 2122.45,915.237 2123.47,918.752 2124.49,923.733 2125.5,929.458 2126.52,934.685 2127.54,939.713 2128.56,943.84 2129.58,946.75 2130.6,949.022 2131.62,951.714 2132.64,954.296 2133.66,956.625 2134.68,958.091 2135.7,961.547 2136.71,967.387 2137.73,972.919 2138.75,977.22 2139.77,980.474 2140.79,984.778 2141.81,989.948 2142.83,993.639 2143.85,998.391 2144.87,1003.27 2145.89,1006.68 2146.9,1008.84 2147.92,1010.29 2148.94,1013.6 2149.96,1018.09 2150.98,1022.74 2152,1028.53 2153.02,1033.87 2154.04,1037.79 2155.06,1041.48 2156.08,1045.86 2157.1,1050.46 2158.11,1053.94 2159.13,1056.74 2160.15,1060.37 2161.17,1065.75 2162.19,1071.91 2163.21,1077.2 2164.23,1081.05 2165.25,1085.76 2166.27,1092.27 2167.29,1098.63 2168.31,1104.36 2169.32,1109.39 2170.34,1113.84 2171.36,1117.97 2172.38,1122.35 2173.4,1127.06 2174.42,1130.83 2175.44,1133.78 2176.46,1137.18 2177.48,1141.5 2178.5,1144.92 2179.51,1148.05 2180.53,1151.79 2181.55,1154.96 2182.57,1159.15 2183.59,1163.8 2184.61,1166.98 2185.63,1169.8 2186.65,1173.83 2187.67,1178.41 2188.69,1181.14 2189.71,1183.97 2190.72,1187.81 2191.74,1190.94 2192.76,1193.18 2193.78,1196.44 2194.8,1200.62 2195.82,1203.81 2196.84,1207.27 2197.86,1211.22 2198.88,1215.22 2199.9,1218.68 2200.92,1221.42 2201.93,1224.49 2202.95,1227.17 2203.97,1228.19 2204.99,1230.07 2206.01,1231.6 2207.03,1233.01 2208.05,1237.29 2209.07,1239.56 2210.09,1240.81 2211.11,1244.59 2212.12,1248.57 2213.14,1251.64 2214.16,1255.81 2215.18,1260.44 2216.2,1264.34 2217.22,1267.53 2218.24,1270.27 2219.26,1272.89 2220.28,1276.2 2221.3,1279.95 2222.32,1283.73 2223.33,1286.83 2224.35,1290.24 2225.37,1294.52 2226.39,1297.61 2227.41,1300.6 2228.43,1304.14 2229.45,1307.27 2230.47,1309.66 2231.49,1312.11 2232.51,1317.16 2233.53,1321.35 2234.54,1323.72 2235.56,1325.8 2236.58,1328.44 2237.6,1330.8 2238.62,1331.7 2239.64,1332.84 2240.66,1334.02 2241.68,1334.32 2242.7,1335.56 2243.72,1338.79 2244.74,1343.22 2245.75,1346.22 2246.77,1347.88 2247.79,1348.94 2248.81,1350.16 2249.83,1352.49 2250.85,1354.5 2251.87,1356.9 2252.89,1359.81 2253.91,1360.7 2254.93,1363.01 2255.94,1365.27 2256.96,1368.18 2257.98,1371.98 2259,1377.02 2260.02,1381.09 2261.04,1383.18 2262.06,1385.58 2263.08,1387.93 2264.1,1391.45 2265.12,1395.15 2266.14,1397.45 2267.15,1398.09 2268.17,1399.92 2269.19,1401.62 2270.21,1402.34 2271.23,1403.99 2272.25,1406.78 2273.27,1408.1 2274.29,1410.42 2275.31,1413.41 2276.33,1415.31 2277.35,1417.78 2278.36,1420.1 2279.38,1421.29 2280.4,1421.81 2281.42,1421.86 2282.44,1423.21 2283.46,1422.82 2284.48,1419.39 2285.5,1418.3 2286.52,1417.84 2287.54,1415.04 2288.55,1415.56 2289.57,1421.25 2290.59,1433.51 2291.61,1433.09 "></polyline>
<polyline clip-path="url(#clip872)" style="stroke:#e26f46; stroke-linecap:round; stroke-linejoin:round; stroke-width:4; stroke-opacity:1; fill:none" points="1272.55,164.322 1271.53,165.131 1270.51,166.044 1269.49,163.943 1268.47,162.353 1267.45,162.196 1266.43,160.616 1265.41,158.886 1264.39,157.525 1263.38,157.394 1262.36,159.655 1261.34,160.503 1260.32,159.711 1259.3,158.362 1258.28,157.129 1257.26,157.029 1256.24,156.211 1255.22,153.551 1254.2,153.38 1253.19,155.321 1252.17,155.823 1251.15,155.471 1250.13,155.975 1249.11,157.624 1248.09,158.534 1247.07,158.046 1246.05,157.545 1245.03,159.205 1244.01,161.745 1242.99,164.433 1241.98,165.163 1240.96,164.524 1239.94,165.837 1238.92,167.797 1237.9,169.123 1236.88,169.732 1235.86,169.787 1234.84,170.207 1233.82,170.27 1232.8,169.761 1231.78,171.391 1230.77,174.576 1229.75,176.853 1228.73,177.117 1227.71,176.704 1226.69,177.931 1225.67,179.192 1224.65,178.445 1223.63,176.817 1222.61,177.242 1221.59,181.111 1220.58,184.924 1219.56,186.626 1218.54,187.395 1217.52,188.882 1216.5,191.297 1215.48,192.578 1214.46,192.01 1213.44,190.573 1212.42,190.523 1211.4,193.088 1210.38,195.549 1209.37,197.674 1208.35,200.747 1207.33,203.689 1206.31,207.767 1205.29,211.719 1204.27,215.702 1203.25,219.009 1202.23,223.14 1201.21,229.278 1200.19,234.218 1199.17,237.567 1198.16,242.454 1197.14,246.626 1196.12,248.815 1195.1,252.081 1194.08,255.004 1193.06,258.116 1192.04,263.483 1191.02,269.007 1190,273.756 1188.98,280.494 1187.96,285.988 1186.95,289.835 1185.93,292.621 1184.91,294.56 1183.89,295.438 1182.87,296.406 1181.85,299.637 1180.83,304.5 1179.81,308.132 1178.79,309.788 1177.77,312.104 1176.76,316.714 1175.74,320.878 1174.72,325.247 1173.7,328.595 1172.68,331.263 1171.66,333.461 1170.64,336.131 1169.62,341.061 1168.6,345.264 1167.58,347.009 1166.56,349.67 1165.55,352.459 1164.53,355.415 1163.51,361.54 1162.49,367.228 1161.47,371.442 1160.45,374.721 1159.43,376.785 1158.41,379.373 1157.39,383.179 1156.37,388.271 1155.35,393.389 1154.34,397.619 1153.32,403.602 1152.3,409.442 1151.28,413.642 1150.26,419.479 1149.24,426.439 1148.22,431.677 1147.2,436.264 1146.18,441.29 1145.16,446.215 1144.15,450.374 1143.13,455.024 1142.11,459.185 1141.09,463.645 1140.07,468.704 1139.05,473.587 1138.03,479.685 1137.01,484.997 1135.99,489.234 1134.97,493.563 1133.95,496.996 1132.94,500.168 1131.92,504.2 1130.9,508.311 1129.88,512.583 1128.86,518.374 1127.84,524.12 1126.82,530.644 1125.8,538.046 1124.78,541.492 1123.76,543.586 1122.74,547.568 1121.73,552.078 1120.71,557.343 1119.69,561.266 1118.67,565.065 1117.65,569.979 1116.63,575.225 1115.61,580.88 1114.59,585.762 1113.57,592.038 1112.55,598.021 1111.54,602.484 1110.52,607.577 1109.5,613.065 1108.48,617.57 1107.46,622.789 1106.44,628.645 1105.42,634.434 1104.4,641.436 1103.38,647.531 1102.36,653.924 1101.34,660.659 1100.33,667.288 1099.31,674.452 1098.29,681.564 1097.27,687.977 1096.25,694.317 1095.23,699.177 1094.21,703.889 1093.19,709.641 1092.17,714.167 1091.15,718.649 1090.13,723.203 1089.12,727.626 1088.1,732.268 1087.08,737.703 1086.06,744.033 1085.04,750.605 1084.02,758.187 1083,764.896 1081.98,770.361 1080.96,776.575 1079.94,783.76 1078.93,790.683 1077.91,796.94 1076.89,803.759 1075.87,810.173 1074.85,816.203 1073.83,822.11 1072.81,827.174 1071.79,832.341 1070.77,837.048 1069.75,841.54 1068.73,847.468 1067.72,853.566 1066.7,859.109 1065.68,864.079 1064.66,869.234 1063.64,875.467 1062.62,882.785 1061.6,890.08 1060.58,896.708 1059.56,902.351 1058.54,907.555 1057.52,914.059 1056.51,920.596 1055.49,925.503 1054.47,930.316 1053.45,935.228 1052.43,940.164 1051.41,945.185 1050.39,951.44 1049.37,957.84 1048.35,964.02 1047.33,970.403 1046.31,977.422 1045.3,983.902 1044.28,990.009 1043.26,996.025 1042.24,1001.6 1041.22,1006.74 1040.2,1012.53 1039.18,1018.5 1038.16,1024.26 1037.14,1030.3 1036.12,1036.17 1035.11,1041.65 1034.09,1046.21 1033.07,1051.29 1032.05,1057.5 1031.03,1063.18 1030.01,1067.71 1028.99,1072.92 1027.97,1079.18 1026.95,1084.85 1025.93,1089.51 1024.91,1094.57 1023.9,1099.78 1022.88,1105.75 1021.86,1111.81 1020.84,1117.42 1019.82,1123.14 1018.8,1129.14 1017.78,1134.52 1016.76,1139.58 1015.74,1145.24 1014.72,1150.19 1013.7,1154.14 1012.69,1158.47 1011.67,1163.43 1010.65,1167.65 1009.63,1171.22 1008.61,1175.11 1007.59,1179.48 1006.57,1183.82 1005.55,1187.73 1004.53,1191.63 1003.51,1196.31 1002.5,1201.06 1001.48,1205.55 1000.46,1210.23 999.438,1214.57 998.419,1218.8 997.4,1223.49 996.381,1227.93 995.362,1232.26 994.343,1237.47 993.324,1242.44 992.305,1247.06 991.285,1251.7 990.266,1255.99 989.247,1260.41 988.228,1264.65 987.209,1268.39 986.19,1272.32 985.171,1276.3 984.152,1279.96 983.133,1283.81 982.114,1287.88 981.095,1291.58 980.076,1295.24 979.057,1298.46 978.038,1301.85 977.019,1305.89 976,1309.67 974.98,1313.56 973.961,1317.55 972.942,1321.39 971.923,1325.15 970.904,1328.56 969.885,1331.88 968.866,1335.19 967.847,1338.52 966.828,1341.99 965.809,1345.05 964.79,1347.86 963.771,1350.9 962.752,1353.82 961.733,1356.53 960.714,1359.48 959.694,1362.34 958.675,1364.98 957.656,1367.78 956.637,1370.84 955.618,1373.64 954.599,1376.15 953.58,1378.94 952.561,1381.59 951.542,1384.12 950.523,1386.31 949.504,1388.42 948.485,1390.94 947.466,1393.32 946.447,1395.62 945.428,1397.78 944.409,1399.86 943.389,1402.02 942.37,1404.13 941.351,1406.18 940.332,1408.09 939.313,1410.12 938.294,1412.23 937.275,1413.91 936.256,1415.66 935.237,1417.58 934.218,1419.1 933.199,1420.7 932.18,1422.41 931.161,1423.89 930.142,1425.22 929.123,1426.44 928.103,1427.54 927.084,1428.69 926.065,1430.01 925.046,1431.31 924.027,1432.65 923.008,1434.04 921.989,1435.21 920.97,1436.05 919.951,1436.92 918.932,1437.75 917.913,1438.41 916.894,1438.94 915.875,1439.66 914.856,1440.32 913.837,1440.75 912.818,1441.11 911.798,1441.46 910.779,1441.94 909.76,1442.32 908.741,1442.62 907.722,1442.93 906.703,1443.14 905.684,1443.34 904.665,1443.35 903.646,1443.19 902.627,1443.08 901.608,1443.01 900.589,1442.89 899.57,1442.56 898.551,1442.31 897.532,1442.21 896.512,1441.88 895.493,1441.45 894.474,1441.06 893.455,1440.49 892.436,1439.89 891.417,1439.23 890.398,1438.5 889.379,1437.88 888.36,1437.05 887.341,1436.19 886.322,1435.25 885.303,1434.29 884.284,1433.25 883.265,1432.01 882.246,1431.16 881.227,1430.26 880.207,1428.95 879.188,1427.96 878.169,1426.83 877.15,1425.13 876.131,1423.23 875.112,1421.42 874.093,1419.53 873.074,1417.6 872.055,1415.84 871.036,1414.18 870.017,1412.6 868.998,1411.11 867.979,1409.38 866.96,1407.47 865.941,1405.68 864.921,1403.7 863.902,1401.59 862.883,1399.46 861.864,1397.46 860.845,1395.5 859.826,1393.06 858.807,1390.3 857.788,1387.75 856.769,1385.27 855.75,1382.76 854.731,1380.43 853.712,1377.97 852.693,1375.87 851.674,1373.78 850.655,1371.3 849.636,1368.54 848.616,1365.57 847.597,1362.45 846.578,1358.94 845.559,1355.73 844.54,1353 843.521,1350.25 842.502,1347.39 841.483,1344.12 840.464,1340.58 839.445,1337.3 838.426,1334.18 837.407,1331.08 836.388,1328.17 835.369,1324.68 834.35,1320.58 833.33,1317.38 832.311,1314.38 831.292,1310.51 830.273,1306.34 829.254,1302.5 828.235,1299.19 827.216,1295.93 826.197,1292.6 825.178,1289.06 824.159,1285.1 823.14,1281.35 822.121,1277.61 821.102,1273.27 820.083,1268.9 819.064,1264.6 818.044,1260.84 817.025,1257.08 816.006,1252.95 814.987,1248.88 813.968,1244.49 812.949,1240.19 811.93,1236.04 810.911,1231.47 809.892,1227.24 808.873,1223.16 807.854,1218.77 806.835,1214.72 805.816,1210.43 804.797,1205.95 803.778,1201.7 802.759,1197.32 801.739,1192.77 800.72,1187.82 799.701,1183.51 798.682,1180.12 797.663,1176.5 796.644,1172.28 795.625,1167.85 794.606,1163.61 793.587,1158.59 792.568,1153.51 791.549,1149.18 790.53,1144.39 789.511,1139.09 788.492,1133.37 787.473,1127.13 786.453,1120.52 785.434,1115.46 784.415,1111.66 783.396,1107.85 782.377,1104.37 781.358,1100.78 780.339,1096.92 779.32,1092.68 778.301,1087.47 777.282,1082.13 776.263,1076.38 775.244,1070.11 774.225,1064.32 773.206,1058.95 772.187,1053.47 771.168,1047.11 770.148,1040.59 769.129,1035.08 768.11,1029.45 767.091,1023.65 766.072,1019.33 765.053,1015.32 764.034,1010.41 763.015,1004.92 761.996,999.71 760.977,994.934 759.958,990.252 758.939,985.541 757.92,981.068 756.901,976.657 755.882,971.654 754.862,966.061 753.843,958.95 752.824,951.229 751.805,943.992 750.786,937.653 749.767,932.625 748.748,927.668 747.729,921.485 746.71,915.778 745.691,910.661 744.672,904.779 743.653,898.674 742.634,893.018 741.615,886.716 740.596,880.11 739.577,872.904 738.557,865.359 737.538,858.962 736.519,852.853 735.5,847.129 734.481,842.033 733.462,837.563 732.443,832.959 731.424,827.075 730.405,820.327 729.386,813.102 728.367,806.2 727.348,799.787 726.329,794.562 725.31,788.951 724.291,783.717 723.271,780.753 722.252,777.479 721.233,771.927 720.214,764.897 719.195,755.76 718.176,746.965 717.157,741.143 716.138,734.99 715.119,726.825 714.1,719.092 713.081,711.721 712.062,704.318 711.043,697.202 710.024,690.917 709.005,685.872 707.986,681.349 706.966,676.871 705.947,670.841 704.928,664.19 703.909,656.584 702.89,650.195 701.871,646.706 700.852,642.426 699.833,637.338 698.814,633.599 697.795,628.259 696.776,620.452 695.757,613.944 694.738,609.578 693.719,605.409 692.7,599.313 691.68,592.677 690.661,586.248 689.642,580.176 688.623,574.728 687.604,568.113 686.585,562.802 685.566,557.855 684.547,551.959 683.528,546.624 682.509,541.104 681.49,535.621 680.471,529.352 679.452,523.952 678.433,519.221 677.414,513.114 676.395,507.546 675.375,503.185 674.356,496.517 673.337,488.039 672.318,480.253 671.299,471.511 670.28,464.099 669.261,459.009 668.242,453.211 667.223,447.399 666.204,444.402 665.185,440.565 664.166,435.44 663.147,431.169 662.128,427.315 661.109,423.567 660.089,418.755 659.07,414.465 658.051,411.101 657.032,406.631 656.013,401.217 654.994,395.96 653.975,390.412 652.956,385.335 651.937,379.874 650.918,373.314 649.899,367.525 648.88,363.157 647.861,358.705 646.842,355.123 645.823,351.298 644.804,348.667 643.784,347.289 642.765,344.3 641.746,340.729 640.727,339.045 639.708,335.899 638.689,329.341 637.67,324.947 636.651,321.741 635.632,315.087 634.613,308.115 633.594,302.691 632.575,298.46 631.556,293.45 630.537,288.2 629.518,283.965 628.498,279.694 627.479,275.203 626.46,269.389 625.441,264.597 624.422,262.27 623.403,257.768 622.384,254.224 621.365,251.824 620.346,247.599 619.327,244.697 618.308,242.199 617.289,237.945 616.27,233.061 615.251,229.05 614.232,227.812 613.212,223.546 612.193,217.742 611.174,215.324 610.155,213.461 609.136,208.929 608.117,203.183 607.098,198.946 606.079,196.06 605.06,192.457 604.041,188.609 603.022,186.241 602.003,183.693 600.984,178.859 599.965,175.231 598.946,172.146 597.927,168.085 596.907,166.481 595.888,164.674 594.869,161.671 593.85,159.065 592.831,156.057 591.812,154.459 590.793,153.725 589.774,151.315 588.755,150.52 587.736,150.079 586.717,146.729 585.698,143.408 584.679,141.889 583.66,138.643 582.641,133.491 581.621,130.159 580.602,128.516 579.583,126.209 578.564,123.97 577.545,120.417 576.526,116.546 575.507,114.367 574.488,112.384 573.469,110.168 572.45,111.245 571.431,111.891 570.412,110.428 569.393,111.451 568.374,110.639 567.355,110.965 566.336,110.129 565.316,106.966 564.297,106.322 563.278,107.88 562.259,110.045 561.24,108.603 560.221,106.9 559.202,108.141 558.183,108.863 557.164,109.897 556.145,110.627 555.126,109.603 554.107,106.971 553.088,104.992 552.069,102.318 551.05,97.8606 550.03,94.6736 549.011,93.5934 547.992,92.4742 546.973,92.5098 545.954,92.8377 544.935,93.0555 543.916,91.2573 542.897,89.9207 541.878,89.9757 540.859,90.8826 539.84,91.9376 538.821,90.2682 537.802,88.369 536.783,88.3771 535.764,89.2749 534.745,88.9635 533.725,87.9763 532.706,88.5419 531.687,90.0068 530.668,91.2165 529.649,91.848 528.63,92.2103 527.611,92.7601 526.592,93.3118 525.573,95.4527 524.554,99.2035 523.535,102.501 522.516,107.315 521.497,112.182 520.478,113.619 519.459,116.537 518.439,118.919 517.42,120.236 516.401,124.126 515.382,128.646 514.363,130.106 513.344,132.515 512.325,138.404 511.306,145.71 510.287,149.842 509.268,152.417 508.249,157.442 507.23,162.858 506.211,166.54 505.192,170.348 504.173,175.011 503.154,178.066 502.134,182.314 501.115,188.791 500.096,195.751 499.077,197.871 498.058,198.097 497.039,199.989 496.02,200.149 495.001,201.082 493.982,204.985 492.963,210.877 491.944,214.185 490.925,215.845 489.906,216.198 488.887,216.299 487.868,220.165 486.848,225.123 485.829,228.732 484.81,231.561 483.791,235.692 482.772,238.211 481.753,238.061 480.734,238.72 479.715,240.694 478.696,245.24 477.677,250.722 476.658,255.391 475.639,259.146 474.62,265.5 473.601,271.394 472.582,277.634 471.563,284.324 470.543,289.944 469.524,297.606 468.505,303.043 467.486,308.412 466.467,313.017 465.448,315.749 464.429,321.838 463.41,328.698 462.391,333.95 461.372,337.476 460.353,337.912 459.334,337.034 458.315,337.47 457.296,342.172 456.277,348.385 455.257,354.437 454.238,360.778 453.219,363.559 452.2,367.404 451.181,373.028 450.162,380.031 449.143,388.283 448.124,395.869 447.105,402.691 446.086,408.37 445.067,414.175 444.048,419.122 443.029,422.435 442.01,424.896 440.991,427.661 439.972,434.347 438.952,442.089 437.933,447.156 436.914,450.415 435.895,451.096 434.876,453.676 433.857,460.761 432.838,469.312 431.819,476.265 430.8,480.867 429.781,486.561 428.762,492.524 427.743,498.362 426.724,507.263 425.705,516.751 424.686,523.48 423.666,526.709 422.647,530.45 421.628,533.662 420.609,536.29 419.59,542.242 418.571,550.497 417.552,560.206 416.533,567.906 415.514,572.751 414.495,577.809 413.476,582.072 412.457,587.368 411.438,594.037 410.419,601.299 409.4,607.269 408.38,610.337 407.361,613.047 406.342,616.52 405.323,622.16 404.304,627.079 403.285,628.595 402.266,632.412 401.247,638.383 400.228,642.354 399.209,645.335 398.19,649.842 397.171,652.762 396.152,654.792 395.133,658.171 394.114,663.005 393.095,670.759 392.075,680.957 391.056,690.162 390.037,698.302 389.018,707.281 387.999,716.704 386.98,725.96 385.961,734.866 384.942,742.059 383.923,748.969 382.904,757.754 381.885,767.179 380.866,775.236 379.847,782.289 378.828,789.236 377.809,796.241 376.789,800.96 375.77,805.037 374.751,810.646 373.732,814.58 372.713,818.983 371.694,824.863 370.675,831.788 369.656,838.466 368.637,841.467 367.618,844.503 366.599,848.987 365.58,852.318 364.561,857.753 363.542,865.472 362.523,871.025 361.504,878.323 360.484,885.722 359.465,890.721 358.446,896.86 357.427,902.368 356.408,906.792 355.389,911.701 354.37,915.82 353.351,921.89 352.332,929.102 351.313,935.615 350.294,940.77 349.275,945.009 348.256,949.284 347.237,953.259 346.218,957.361 345.198,963.002 344.179,969.332 343.16,975.857 342.141,982.108 341.122,987.618 340.103,992.313 339.084,998.397 338.065,1005.02 337.046,1009.61 336.027,1014.12 335.008,1019.62 333.989,1024.99 332.97,1030.8 331.951,1037.07 330.932,1042.72 329.913,1047.46 328.893,1052.12 327.874,1059.28 326.855,1066.16 325.836,1072.36 324.817,1079.47 323.798,1085.64 322.779,1090.43 321.76,1095.74 320.741,1103.33 319.722,1110.23 318.703,1117.28 317.684,1124.08 316.665,1132.12 315.646,1138.82 314.627,1143.8 313.607,1148.69 312.588,1152.96 311.569,1155.94 310.55,1158.64 309.531,1162.82 308.512,1165.84 307.493,1169.37 306.474,1172.36 305.455,1176.5 304.436,1180.74 303.417,1187.42 302.398,1193.79 301.379,1196.5 300.36,1199.91 299.341,1204.15 298.322,1208.28 297.302,1212.29 296.283,1217.26 295.264,1219.98 294.245,1221.12 293.226,1222.78 292.207,1226.28 291.188,1227.83 290.169,1228.84 289.15,1234.06 288.131,1241.39 287.112,1246.98 286.093,1254.03 285.074,1260.79 284.055,1266.62 283.036,1270.9 282.016,1273.95 280.997,1279.34 279.978,1284.56 278.959,1289.03 277.94,1294.48 276.921,1299.39 275.902,1302.66 274.883,1304.56 273.864,1308.61 272.845,1311.23 271.826,1313.18 270.807,1316.14 269.788,1319.44 268.769,1328.18 267.75,1336.7 266.731,1343.27 265.711,1351.55 264.692,1354.42 263.673,1356.72 262.654,1361.75 261.635,1365.47 260.616,1368.15 259.597,1370.21 258.578,1368.94 257.559,1369.16 256.54,1367.16 255.521,1378.92 254.502,1378.4 253.483,1381.99 "></polyline>
<path clip-path="url(#clip870)" d="M2012.27 250.738 L2280.74 250.738 L2280.74 95.2176 L2012.27 95.2176  Z" fill="#ffffff" fill-rule="evenodd" fill-opacity="1"></path>
<polyline clip-path="url(#clip870)" style="stroke:#000000; stroke-linecap:round; stroke-linejoin:round; stroke-width:4; stroke-opacity:1; fill:none" points="2012.27,250.738 2280.74,250.738 2280.74,95.2176 2012.27,95.2176 2012.27,250.738 "></polyline>
<polyline clip-path="url(#clip870)" style="stroke:#009af9; stroke-linecap:round; stroke-linejoin:round; stroke-width:4; stroke-opacity:1; fill:none" points="2036.27,147.058 2180.3,147.058 "></polyline>
<path clip-path="url(#clip870)" d="M2218.15 166.745 Q2216.34 171.375 2214.63 172.787 Q2212.92 174.199 2210.05 174.199 L2206.65 174.199 L2206.65 170.634 L2209.15 170.634 Q2210.9 170.634 2211.88 169.8 Q2212.85 168.967 2214.03 165.865 L2214.79 163.921 L2204.31 138.412 L2208.82 138.412 L2216.92 158.689 L2225.02 138.412 L2229.54 138.412 L2218.15 166.745 Z" fill="#000000" fill-rule="nonzero" fill-opacity="1"></path><path clip-path="url(#clip870)" d="M2236.83 160.402 L2244.47 160.402 L2244.47 134.037 L2236.16 135.703 L2236.16 131.444 L2244.42 129.778 L2249.1 129.778 L2249.1 160.402 L2256.74 160.402 L2256.74 164.338 L2236.83 164.338 L2236.83 160.402 Z" fill="#000000" fill-rule="nonzero" fill-opacity="1"></path><polyline clip-path="url(#clip870)" style="stroke:#e26f46; stroke-linecap:round; stroke-linejoin:round; stroke-width:4; stroke-opacity:1; fill:none" points="2036.27,198.898 2180.3,198.898 "></polyline>
<path clip-path="url(#clip870)" d="M2218.15 218.585 Q2216.34 223.215 2214.63 224.627 Q2212.92 226.039 2210.05 226.039 L2206.65 226.039 L2206.65 222.474 L2209.15 222.474 Q2210.9 222.474 2211.88 221.64 Q2212.85 220.807 2214.03 217.705 L2214.79 215.761 L2204.31 190.252 L2208.82 190.252 L2216.92 210.529 L2225.02 190.252 L2229.54 190.252 L2218.15 218.585 Z" fill="#000000" fill-rule="nonzero" fill-opacity="1"></path><path clip-path="url(#clip870)" d="M2240.05 212.242 L2256.37 212.242 L2256.37 216.178 L2234.42 216.178 L2234.42 212.242 Q2237.08 209.488 2241.67 204.858 Q2246.27 200.205 2247.46 198.863 Q2249.7 196.34 2250.58 194.604 Q2251.48 192.844 2251.48 191.155 Q2251.48 188.4 2249.54 186.664 Q2247.62 184.928 2244.52 184.928 Q2242.32 184.928 2239.86 185.692 Q2237.43 186.455 2234.65 188.006 L2234.65 183.284 Q2237.48 182.15 2239.93 181.571 Q2242.39 180.993 2244.42 180.993 Q2249.79 180.993 2252.99 183.678 Q2256.18 186.363 2256.18 190.854 Q2256.18 192.983 2255.37 194.905 Q2254.58 196.803 2252.48 199.395 Q2251.9 200.067 2248.8 203.284 Q2245.7 206.479 2240.05 212.242 Z" fill="#000000" fill-rule="nonzero" fill-opacity="1"></path></svg>